<?xml version="1.0" encoding="UTF-8"?>
<svg width="963px" height="768px" viewBox="0 0 963 768" version="1.1" xmlns="http://www.w3.org/2000/svg" xmlns:xlink="http://www.w3.org/1999/xlink">
    <!-- Generator: Sketch 52.5 (67469) - http://www.bohemiancoding.com/sketch -->
    <title>carbon</title>
    <desc>Created with Sketch.</desc>
    <g id="Page-1" stroke="none" stroke-width="1" fill="none" fill-rule="evenodd" opacity="0.25">
        <g id="first-page" transform="translate(-239.000000, -128.000000)" fill="#000000">
            <g id="carbon" transform="translate(239.000000, 128.000000)">
                <g id="textures" opacity="0.1">
                    <g id="carbon">
                        <g id="texture">
                            <path d="M464.70262,451.578893 C469.110659,447.836623 474.819726,445.578947 481.056361,445.578947 C487.615827,445.578947 493.549188,448.077175 497.676053,451.850912 C507.516669,460.747045 521.531764,464.626345 535.301854,460.938475 C556.875728,455.160617 569.678623,432.99626 563.897921,411.432999 C560.206742,397.664108 549.831065,387.46962 537.726914,383.577067 C531.932211,381.736201 526.780353,377.812223 523.50062,372.134352 C520.382303,366.735925 519.483935,360.665322 520.522412,354.978591 C523.460578,341.987691 519.846512,327.712333 509.652427,317.523263 C493.859256,301.73786 468.253466,301.73786 452.460294,317.523263 C445.591675,324.388504 441.710291,333.108863 440.816144,342.070718 C440.40877,346.153751 440.621464,350.286912 441.454225,354.3176 C442.716446,360.10053 441.892437,366.521966 438.612703,372.199836 C435.494386,377.598263 430.681738,381.348174 425.235222,383.292635 C412.510913,387.245595 401.946615,397.51253 398.214801,411.432999 C392.434099,432.99626 405.236994,455.160617 426.810867,460.938475 C440.780323,464.679739 455.001931,460.633129 464.861454,451.461365" id="Combined-Shape"></path>
                            <path d="M728.83254,450.947314 C733.240579,447.205043 738.949651,444.947368 745.186279,444.947368 C751.745747,444.947368 757.679111,447.445596 761.805974,451.219333 C771.64659,460.115467 785.661684,463.994766 799.431775,460.306897 C821.00565,454.529038 833.808541,432.364681 828.027839,410.801419 C824.33666,397.03253 813.960984,386.838041 801.856836,382.945488 C796.062131,381.104623 790.910275,377.180643 787.630544,371.502773 C784.512223,366.104346 783.613858,360.033743 784.652333,354.347011 C787.5905,341.356112 783.976434,327.080753 773.78235,316.891684 C757.989177,301.106281 732.383388,301.106281 716.590215,316.891684 C709.721597,323.756925 705.840213,332.477284 704.946067,341.439139 C704.538691,345.522172 704.751387,349.655333 705.584148,353.686021 C706.846367,359.468952 706.02236,365.890387 702.742623,371.568257 C699.624308,376.966684 694.811656,380.716595 689.365142,382.661056 C676.640835,386.614016 666.076536,396.880951 662.344722,410.801419 C656.56402,432.364681 669.366915,454.529038 690.94079,460.306897 C704.910242,464.04816 719.131853,460.00155 728.991375,450.829786" id="Combined-Shape-Copy-18" opacity="0.66"></path>
                            <path d="M200.572698,451.578893 C204.980738,447.836623 210.689805,445.578947 216.926439,445.578947 C223.485906,445.578947 229.419268,448.077175 233.546131,451.850912 C243.386748,460.747045 257.401843,464.626345 271.171933,460.938475 C292.745807,455.160617 305.548702,432.99626 299.767999,411.432999 C296.076821,397.664108 285.701144,387.46962 273.596992,383.577067 C267.80229,381.736201 262.650432,377.812223 259.370699,372.134352 C256.252381,366.735925 255.354014,360.665322 256.392491,354.978591 C259.330656,341.987691 255.71659,327.712333 245.522506,317.523263 C229.729334,301.73786 204.123544,301.73786 188.330373,317.523263 C181.461753,324.388504 177.58037,333.108863 176.686223,342.070718 C176.278849,346.153751 176.491543,350.286912 177.324305,354.3176 C178.586524,360.10053 177.762515,366.521966 174.482782,372.199836 C171.364465,377.598263 166.551816,381.348174 161.1053,383.292635 C148.380992,387.245595 137.816693,397.51253 134.084879,411.432999 C128.304177,432.99626 141.107073,455.160617 162.680946,460.938475 C176.650403,464.679739 190.87201,460.633129 200.731533,451.461365" id="Combined-Shape-Copy-2" opacity="0.66"></path>
                            <path d="M68.5077377,527.999946 C72.9157773,524.257675 78.6248439,522 84.8614786,522 C91.4209451,522 97.3543071,524.498227 101.481171,528.271965 C111.321787,537.168099 125.336882,541.047398 139.106972,537.359528 C160.680846,531.58167 173.483741,509.417313 167.703039,487.854051 C164.01186,474.085161 153.636183,463.890673 141.532032,459.99812 C135.73733,458.157255 130.585472,454.233275 127.305738,448.555405 C124.187421,443.156977 123.289053,437.086375 124.32753,431.399643 C127.265696,418.408743 123.65163,404.133385 113.457545,393.944315 C97.6643737,378.158912 72.0585836,378.158912 56.2654125,393.944315 C49.3967928,400.809556 45.5154096,409.529915 44.6212626,418.491771 C44.2138882,422.574804 44.4265819,426.707965 45.2593439,430.738653 C46.5215637,436.521583 45.6975546,442.943018 42.4178215,448.620888 C39.2995042,454.019316 34.4868554,457.769226 29.0403394,459.713687 C16.3160315,463.666648 5.75173275,473.933582 2.01991874,487.854051 C-3.76078319,509.417313 9.04211184,531.58167 30.6159851,537.359528 C44.5854419,541.100791 58.8070492,537.054181 68.6665719,527.882418" id="Combined-Shape-Copy-27" opacity="0.33"></path>
                            <path d="M597.39947,527.368366 C601.807509,523.626096 607.516576,521.368421 613.753211,521.368421 C620.312678,521.368421 626.246039,523.866649 630.372903,527.640386 C640.213519,536.536519 654.228614,540.415819 667.998705,536.727949 C689.572581,530.950091 702.375472,508.785734 696.594771,487.222473 C692.903592,473.453582 682.527915,463.259093 670.423761,459.366541 C664.629062,457.525675 659.477203,453.601696 656.197471,447.923826 C653.079153,442.525399 652.180786,436.454796 653.219262,430.768065 C656.157428,417.777164 652.543362,403.501807 642.349277,393.312737 C626.556106,377.527333 600.950316,377.527333 585.157145,393.312737 C578.288525,400.177977 574.407142,408.898336 573.512995,417.860192 C573.10562,421.943224 573.318314,426.076386 574.151076,430.107074 C575.413296,435.890004 574.589287,442.311439 571.309554,447.989309 C568.191236,453.387737 563.378587,457.137647 557.932071,459.082108 C545.207764,463.035069 534.643465,473.302003 530.911651,487.222473 C525.130949,508.785734 537.933844,530.950091 559.507717,536.727949 C573.477174,540.469213 587.698781,536.422603 597.558304,527.250838" id="Combined-Shape-Copy-5"></path>
                            <path d="M861.529392,526.736788 C865.937431,522.994517 871.646496,520.736842 877.883132,520.736842 C884.4426,520.736842 890.375964,523.23507 894.502826,527.008807 C904.343443,535.90494 918.358537,539.78424 932.128627,536.09637 C953.702502,530.318512 966.505394,508.154155 960.724692,486.590893 C957.033513,472.822003 946.657837,462.627514 934.553682,458.734962 C928.758983,456.894096 923.607127,452.970117 920.32739,447.292247 C917.209076,441.89382 916.310704,435.823217 917.349186,430.136485 C920.287352,417.145585 916.67328,402.870227 906.479196,392.681157 C890.68603,376.895755 865.080241,376.895755 849.287067,392.681157 C842.418443,399.546399 838.537065,408.266757 837.64292,417.228613 C837.235544,421.311646 837.448233,425.444807 838.281001,429.475495 C839.543219,435.258425 838.719206,441.679861 835.439475,447.357731 C832.321161,452.756158 827.508508,456.506069 822.061994,458.45053 C809.337688,462.40349 798.773384,472.670425 795.041572,486.590893 C789.26087,508.154155 802.063768,530.318512 823.637636,536.09637 C837.607095,539.837634 851.828705,535.791024 861.688227,526.61926" id="Combined-Shape-Copy-19" opacity="0.33"></path>
                            <path d="M333.269549,527.368366 C337.677588,523.626096 343.386655,521.368421 349.62329,521.368421 C356.182756,521.368421 362.116118,523.866649 366.242982,527.640386 C376.083598,536.536519 390.098693,540.415819 403.868784,536.727949 C425.442657,530.950091 438.245552,508.785734 432.46485,487.222473 C428.773672,473.453582 418.397995,463.259093 406.293843,459.366541 C400.49914,457.525675 395.347282,453.601696 392.06755,447.923826 C388.949232,442.525399 388.050865,436.454796 389.089341,430.768065 C392.027507,417.777164 388.413441,403.501807 378.219356,393.312737 C362.426185,377.527333 336.820395,377.527333 321.027223,393.312737 C314.158604,400.177977 310.27722,408.898336 309.383074,417.860192 C308.975699,421.943224 309.188393,426.076386 310.021155,430.107074 C311.283375,435.890004 310.459366,442.311439 307.179633,447.989309 C304.061316,453.387737 299.248666,457.137647 293.80215,459.082108 C281.077843,463.035069 270.513544,473.302003 266.78173,487.222473 C261.001028,508.785734 273.803923,530.950091 295.377796,536.727949 C309.347253,540.469213 323.56886,536.422603 333.428383,527.250838" id="Combined-Shape-Copy-7"></path>
                            <path d="M596.135691,681.473631 C600.54373,677.731359 606.252797,675.473686 612.489431,675.473686 C619.048898,675.473686 624.98226,677.971912 629.109124,681.745646 C638.94974,690.64178 652.964835,694.521082 666.734925,690.833211 C688.308797,685.055352 701.111695,662.890997 695.330993,641.327736 C691.639814,627.558845 681.264138,617.364357 669.159984,613.471804 C663.365283,611.630938 658.213424,607.706959 654.933691,602.029089 C651.815373,596.630662 650.917006,590.560059 651.955483,584.873328 C654.893648,571.882428 651.279582,557.60707 641.085498,547.418 C625.292327,531.632597 599.686536,531.632597 583.893365,547.418 C577.024746,554.283241 573.143362,563.003599 572.249215,571.965455 C571.841841,576.048488 572.054535,580.181649 572.887297,584.212337 C574.149516,589.995267 573.325507,596.416702 570.045774,602.094573 C566.927457,607.493 562.114808,611.24291 556.668292,613.187371 C543.943984,617.140332 533.379686,627.407266 529.647871,641.327736 C523.86717,662.890997 536.670065,685.055352 558.243938,690.833211 C572.213395,694.574474 586.435002,690.527863 596.294525,681.356105" id="Combined-Shape-Copy-8" opacity="0.66"></path>
                            <path d="M860.265609,680.842053 C864.673654,677.099781 870.382719,674.842108 876.619355,674.842108 C883.178816,674.842108 889.11218,677.340334 893.239043,681.114068 C903.079659,690.010202 917.094753,693.889504 930.864844,690.201633 C952.438719,684.423774 965.241617,662.259418 959.460915,640.696156 C955.769736,626.927266 945.39406,616.732778 933.289905,612.840225 C927.495207,610.999359 922.343344,607.07538 919.063613,601.39751 C915.945292,595.999083 915.046927,589.92848 916.085402,584.241748 C919.023568,571.250848 915.409503,556.97549 905.215419,546.78642 C889.422246,531.001018 863.816457,531.001018 848.023284,546.78642 C841.154666,553.651662 837.273281,562.37202 836.379136,571.333876 C835.97176,575.416909 836.184456,579.55007 837.017217,583.580758 C838.279436,589.363689 837.455429,595.785124 834.175698,601.462994 C831.057377,606.861421 826.244731,610.611332 820.79821,612.555793 C808.073904,616.508753 797.509607,626.775688 793.777795,640.696156 C787.997093,662.259418 800.799984,684.423774 822.373859,690.201633 C836.343318,693.942896 850.564922,689.896285 860.424443,680.72452" id="Combined-Shape-Copy-20" opacity="0.33"></path>
                            <path d="M332.005769,681.473631 C336.413809,677.731359 342.122875,675.473686 348.35951,675.473686 C354.918977,675.473686 360.852339,677.971912 364.979202,681.745646 C374.819818,690.64178 388.834914,694.521082 402.605004,690.833211 C424.178878,685.055352 436.981773,662.890997 431.20107,641.327736 C427.509892,627.558845 417.134215,617.364357 405.030063,613.471804 C399.235361,611.630938 394.083503,607.706959 390.80377,602.029089 C387.685452,596.630662 386.787085,590.560059 387.825561,584.873328 C390.763727,571.882428 387.149661,557.60707 376.955576,547.418 C361.162405,531.632597 335.556615,531.632597 319.763444,547.418 C312.894824,554.283241 309.013441,563.003599 308.119294,571.965455 C307.711919,576.048488 307.924613,580.181649 308.757376,584.212337 C310.019595,589.995267 309.195586,596.416702 305.915853,602.094573 C302.797536,607.493 297.984887,611.24291 292.538371,613.187371 C279.814063,617.140332 269.249764,627.407266 265.51795,641.327736 C259.737248,662.890997 272.540143,685.055352 294.114016,690.833211 C308.083474,694.574474 322.305081,690.527863 332.164603,681.356105" id="Combined-Shape-Copy-12" opacity="0.66"></path>
                            <path d="M464.07073,756.631521 C468.478769,752.889256 474.187836,750.631576 480.424471,750.631576 C486.983937,750.631576 492.917299,753.129809 497.044163,756.903543 C506.884779,765.799677 520.899874,769.678979 534.669965,765.991109 C556.243838,760.213249 569.046733,738.048889 563.266031,716.485628 C559.574853,702.716738 549.199176,692.52225 537.095024,688.6297 C531.300322,686.788833 526.148464,682.864854 522.868731,677.186981 C519.750413,671.788556 518.852046,665.717954 519.890522,660.031222 C522.828688,647.040322 519.214622,632.764964 509.020537,622.575894 C493.227366,606.790492 467.621576,606.790492 451.828404,622.575894 C444.959785,629.441136 441.078402,638.161494 440.184255,647.12335 C439.77688,651.206383 439.989574,655.339543 440.822336,659.370232 C442.084556,665.153162 441.260547,671.574599 437.980814,677.252465 C434.862496,682.650897 430.049848,686.400802 424.603332,688.345266 C411.879024,692.298227 401.314725,702.565163 397.582911,716.485628 C391.802209,738.048889 404.605104,760.213249 426.178977,765.991109 C440.148434,769.732371 454.370042,765.68576 464.229564,756.513995" id="Combined-Shape-Copy-9" opacity="0.66"></path>
                            <path d="M728.200651,755.999943 C732.60869,752.257678 738.317755,749.999998 744.554391,749.999998 C751.113859,749.999998 757.047223,752.498231 761.174086,756.271965 C771.014702,765.168099 785.029796,769.047401 798.799887,765.35953 C820.373762,759.581671 833.176653,737.417311 827.395951,715.85405 C823.704772,702.08516 813.329096,691.890672 801.224948,687.998122 C795.430243,686.157255 790.278386,682.233276 786.998649,676.555403 C783.880335,671.156978 782.981969,665.086375 784.020445,659.399643 C786.958611,646.408743 783.344546,632.133385 773.150462,621.944315 C757.357288,606.158912 731.7515,606.158912 715.958326,621.944315 C709.089709,628.809556 705.208324,637.529915 704.314179,646.491771 C703.906803,650.574804 704.119492,654.707965 704.95226,658.738653 C706.214478,664.521583 705.390465,670.943021 702.110734,676.620887 C698.99242,682.019319 694.179767,685.769224 688.733253,687.713688 C676.008947,691.666649 665.444646,701.933585 661.712832,715.85405 C655.93213,737.417311 668.735025,759.581671 690.308902,765.35953 C704.278354,769.100793 718.499964,765.054182 728.359486,755.882417" id="Combined-Shape-Copy-21" opacity="0.33"></path>
                            <path d="M199.940809,756.631521 C204.348848,752.889256 210.057915,750.631576 216.294549,750.631576 C222.854016,750.631576 228.787378,753.129809 232.914242,756.903543 C242.754858,765.799677 256.769953,769.678979 270.540043,765.991109 C292.113917,760.213249 304.916812,738.048889 299.13611,716.485628 C295.444931,702.716738 285.069254,692.52225 272.965103,688.6297 C267.170401,686.788833 262.018542,682.864854 258.738809,677.186981 C255.620492,671.788556 254.722124,665.717954 255.760601,660.031222 C258.698766,647.040322 255.0847,632.764964 244.890616,622.575894 C229.097445,606.790492 203.491654,606.790492 187.698483,622.575894 C180.829864,629.441136 176.948481,638.161494 176.054333,647.12335 C175.646959,651.206383 175.859653,655.339543 176.692415,659.370232 C177.954634,665.153162 177.130625,671.574599 173.850892,677.252465 C170.732575,682.650897 165.919927,686.400802 160.473411,688.345266 C147.749102,692.298227 137.184804,702.565163 133.452989,716.485628 C127.672288,738.048889 140.475183,760.213249 162.049056,765.991109 C176.018513,769.732371 190.24012,765.68576 200.099643,756.513995" id="Combined-Shape-Copy-13"></path>
                            <path d="M464.07073,605.052577 C468.478769,601.310306 474.187836,599.052632 480.424471,599.052632 C486.983937,599.052632 492.917299,601.550859 497.044163,605.324596 C506.884779,614.22073 520.899874,618.100029 534.669965,614.41216 C556.243838,608.634301 569.046733,586.469944 563.266031,564.906682 C559.574853,551.137793 549.199176,540.943304 537.095024,537.050752 C531.300322,535.209886 526.148464,531.285906 522.868731,525.608036 C519.750413,520.209609 518.852046,514.139006 519.890522,508.452274 C522.828688,495.461375 519.214622,481.186017 509.020537,470.996947 C493.227366,455.211544 467.621576,455.211544 451.828404,470.996947 C444.959785,477.862188 441.078402,486.582547 440.184255,495.544402 C439.77688,499.627435 439.989574,503.760596 440.822336,507.791284 C442.084556,513.574215 441.260547,519.99565 437.980814,525.67352 C434.862496,531.071947 430.049848,534.821858 424.603332,536.766319 C411.879024,540.719279 401.314725,550.986214 397.582911,564.906682 C391.802209,586.469944 404.605104,608.634301 426.178977,614.41216 C440.148434,618.153423 454.370042,614.106813 464.229564,604.935049" id="Combined-Shape-Copy-6"></path>
                            <path d="M728.200651,604.420998 C732.60869,600.678728 738.317755,598.421053 744.554391,598.421053 C751.113859,598.421053 757.047223,600.919281 761.174086,604.693017 C771.014702,613.589151 785.029796,617.468451 798.799887,613.780581 C820.373762,608.002722 833.176653,585.838365 827.395951,564.275104 C823.704772,550.506214 813.329096,540.311725 801.224948,536.419172 C795.430243,534.578307 790.278386,530.654328 786.998649,524.976458 C783.880335,519.57803 782.981969,513.507428 784.020445,507.820696 C786.958611,494.829796 783.344546,480.554438 773.150462,470.365368 C757.357288,454.579965 731.7515,454.579965 715.958326,470.365368 C709.089709,477.230609 705.208324,485.950968 704.314179,494.912823 C703.906803,498.995856 704.119492,503.129017 704.95226,507.159706 C706.214478,512.942636 705.390465,519.364071 702.110734,525.041941 C698.99242,530.440368 694.179767,534.190279 688.733253,536.13474 C676.008947,540.0877 665.444646,550.354635 661.712832,564.275104 C655.93213,585.838365 668.735025,608.002722 690.308902,613.780581 C704.278354,617.521844 718.499964,613.475234 728.359486,604.30347" id="Combined-Shape-Copy-22" opacity="0.66"></path>
                            <path d="M199.940809,605.052577 C204.348848,601.310306 210.057915,599.052632 216.294549,599.052632 C222.854016,599.052632 228.787378,601.550859 232.914242,605.324596 C242.754858,614.22073 256.769953,618.100029 270.540043,614.41216 C292.113917,608.634301 304.916812,586.469944 299.13611,564.906682 C295.444931,551.137793 285.069254,540.943304 272.965103,537.050752 C267.170401,535.209886 262.018542,531.285906 258.738809,525.608036 C255.620492,520.209609 254.722124,514.139006 255.760601,508.452274 C258.698766,495.461375 255.0847,481.186017 244.890616,470.996947 C229.097445,455.211544 203.491654,455.211544 187.698483,470.996947 C180.829864,477.862188 176.948481,486.582547 176.054333,495.544402 C175.646959,499.627435 175.859653,503.760596 176.692415,507.791284 C177.954634,513.574215 177.130625,519.99565 173.850892,525.67352 C170.732575,531.071947 165.919927,534.821858 160.473411,536.766319 C147.749102,540.719279 137.184804,550.986214 133.452989,564.906682 C127.672288,586.469944 140.475183,608.634301 162.049056,614.41216 C176.018513,618.153423 190.24012,614.106813 200.099643,604.935049" id="Combined-Shape-Copy-14" opacity="0.66"></path>
                            <path d="M67.8758479,681.473631 C72.2838875,677.731359 77.992954,675.473686 84.2295888,675.473686 C90.7890553,675.473686 96.7224173,677.971912 100.849281,681.745646 C110.689897,690.64178 124.704992,694.521082 138.475083,690.833211 C160.048956,685.055352 172.851851,662.890997 167.07115,641.327736 C163.379971,627.558845 153.004294,617.364357 140.900142,613.471804 C135.10544,611.630938 129.953582,607.706959 126.673849,602.029089 C123.555531,596.630662 122.657164,590.560059 123.69564,584.873328 C126.633806,571.882428 123.01974,557.60707 112.825656,547.418 C97.0324839,531.632597 71.4266944,531.632597 55.6335228,547.418 C48.7649031,554.283241 44.8835198,563.003599 43.9893729,571.965455 C43.5819984,576.048488 43.7946921,580.181649 44.6274541,584.212337 C45.889674,589.995267 45.0656649,596.416702 41.7859318,602.094573 C38.6676144,607.493 33.8549657,611.24291 28.4084497,613.187371 C15.6841417,617.140332 5.11984299,627.407266 1.38802897,641.327736 C-4.39267295,662.890997 8.41022207,685.055352 29.9840953,690.833211 C43.9535521,694.574474 58.1751594,690.527863 68.0346821,681.356105" id="Combined-Shape-Copy-29" opacity="0.33"></path>
                            <path d="M465.33451,299.368366 C469.742548,295.626096 475.451616,293.368421 481.68825,293.368421 C488.247717,293.368421 494.181078,295.866649 498.307943,299.640386 C508.148559,308.536519 522.163654,312.415819 535.933744,308.727949 C557.507618,302.950091 570.310512,280.785734 564.529811,259.222473 C560.838632,245.453582 550.462955,235.259093 538.358804,231.366541 C532.564101,229.525675 527.412243,225.601696 524.13251,219.923826 C521.014193,214.525399 520.115825,208.454796 521.154302,202.768065 C524.092467,189.777164 520.478401,175.501807 510.284317,165.312737 C494.491146,149.527333 468.885355,149.527333 453.092184,165.312737 C446.223565,172.177977 442.342181,180.898336 441.448034,189.860192 C441.04066,193.943224 441.253354,198.076386 442.086115,202.107074 C443.348335,207.890004 442.524326,214.311439 439.244593,219.989309 C436.126275,225.387737 431.313627,229.137647 425.867111,231.082108 C413.142803,235.035069 402.578505,245.302003 398.84669,259.222473 C393.065989,280.785734 405.868884,302.950091 427.442757,308.727949 C441.412213,312.469213 455.633821,308.422603 465.493344,299.250838" id="Combined-Shape-Copy"></path>
                            <path d="M729.464428,298.736788 C733.872467,294.994517 739.581539,292.736842 745.818174,292.736842 C752.377636,292.736842 758.311,295.23507 762.437863,299.008807 C772.278479,307.90494 786.293573,311.78424 800.063664,308.09637 C821.637539,302.318512 834.440436,280.154155 828.659735,258.590893 C824.968555,244.822003 814.592879,234.627514 802.488725,230.734962 C796.69402,228.894096 791.542163,224.970117 788.262433,219.292247 C785.144112,213.89382 784.245746,207.823217 785.284222,202.136485 C788.222388,189.145585 784.608323,174.870227 774.414239,164.681157 C758.621065,148.895755 733.015277,148.895755 717.222103,164.681157 C710.353486,171.546399 706.472101,180.266757 705.577956,189.228613 C705.17058,193.311646 705.383276,197.444807 706.216037,201.475495 C707.478255,207.258425 706.654248,213.679861 703.374511,219.357731 C700.256197,224.756158 695.443551,228.506069 689.99703,230.45053 C677.272724,234.40349 666.708426,244.670425 662.976612,258.590893 C657.19591,280.154155 669.998804,302.318512 691.572679,308.09637 C705.542137,311.837634 719.763741,307.791024 729.623263,298.61926" id="Combined-Shape-Copy-23" opacity="0.66"></path>
                            <path d="M201.204588,299.368366 C205.612628,295.626096 211.321694,293.368421 217.558329,293.368421 C224.117796,293.368421 230.051157,295.866649 234.178021,299.640386 C244.018637,308.536519 258.033733,312.415819 271.803823,308.727949 C293.377697,302.950091 306.180592,280.785734 300.399889,259.222473 C296.708711,245.453582 286.333034,235.259093 274.228882,231.366541 C268.43418,229.525675 263.282321,225.601696 260.002589,219.923826 C256.884271,214.525399 255.985904,208.454796 257.02438,202.768065 C259.962546,189.777164 256.34848,175.501807 246.154395,165.312737 C230.361224,149.527333 204.755434,149.527333 188.962263,165.312737 C182.093643,172.177977 178.21226,180.898336 177.318113,189.860192 C176.910738,193.943224 177.123432,198.076386 177.956194,202.107074 C179.218414,207.890004 178.394405,214.311439 175.114672,219.989309 C171.996355,225.387737 167.183706,229.137647 161.73719,231.082108 C149.012882,235.035069 138.448583,245.302003 134.716769,259.222473 C128.936067,280.785734 141.738962,302.950091 163.312835,308.727949 C177.282292,312.469213 191.503899,308.422603 201.363422,299.250838" id="Combined-Shape-Copy-3" opacity="0.66"></path>
                            <path d="M69.1396276,375.789419 C73.5476671,372.047149 79.2567337,369.789473 85.4933685,369.789473 C92.052835,369.789473 97.9861963,372.287701 102.113061,376.061439 C111.953677,384.957572 125.968772,388.836871 139.738862,385.149002 C161.312736,379.371143 174.115631,357.206787 168.334929,335.643525 C164.64375,321.874635 154.268073,311.680146 142.163922,307.787594 C136.36922,305.946728 131.217361,302.022749 127.937628,296.344879 C124.819311,290.946451 123.920943,284.875848 124.95942,279.189117 C127.897586,266.198217 124.283519,251.922859 114.089435,241.733789 C98.2962636,225.948386 72.6904734,225.948386 56.8973022,241.733789 C50.0286826,248.59903 46.1472993,257.319389 45.2531524,266.281244 C44.8457779,270.364277 45.0584717,274.497438 45.8912337,278.528126 C47.1534535,284.311057 46.3294444,290.732492 43.0497113,296.410362 C39.9313939,301.80879 35.1187452,305.5587 29.6722292,307.503161 C16.9479213,311.456122 6.38362251,321.723056 2.6518085,335.643525 C-3.12889342,357.206787 9.67400161,379.371143 31.2478749,385.149002 C45.2173316,388.890265 59.438939,384.843655 69.2984617,375.671891" id="Combined-Shape-Copy-30" opacity="0.33"></path>
                            <path d="M598.03136,222.947314 C602.439399,219.205043 608.148466,216.947368 614.385101,216.947368 C620.944567,216.947368 626.877929,219.445596 631.004793,223.219333 C640.845409,232.115467 654.860504,235.994766 668.630595,232.306897 C690.20447,226.529038 703.007361,204.364681 697.226659,182.801419 C693.53548,169.03253 683.159804,158.838041 671.055656,154.945488 C665.260951,153.104623 660.109093,149.180643 656.82936,143.502773 C653.711043,138.104346 652.812676,132.033743 653.851152,126.347011 C656.789317,113.356112 653.175251,99.0807535 642.981167,88.8916841 C627.187996,73.1062809 601.582206,73.1062809 585.789035,88.8916841 C578.920415,95.756925 575.039032,104.477284 574.144885,113.439139 C573.73751,117.522172 573.950204,121.655333 574.782966,125.686021 C576.045186,131.468952 575.221177,137.890387 571.941444,143.568257 C568.823126,148.966684 564.010477,152.716595 558.563961,154.661056 C545.839654,158.614016 535.275354,168.880951 531.543541,182.801419 C525.762839,204.364681 538.565734,226.529038 560.139607,232.306897 C574.109064,236.04816 588.330671,232.00155 598.190194,222.829786" id="Combined-Shape-Copy-10" opacity="0.66"></path>
                            <path d="M862.161281,222.315735 C866.56932,218.573464 872.278385,216.31579 878.51502,216.31579 C885.074488,216.31579 891.007852,218.814018 895.134715,222.587754 C904.975331,231.483888 918.990425,235.363188 932.760516,231.675318 C954.334391,225.897459 967.137282,203.733102 961.35658,182.169841 C957.665401,168.400951 947.289725,158.206462 935.185577,154.313909 C929.390872,152.473044 924.239016,148.549065 920.959279,142.871194 C917.840964,137.472767 916.942599,131.402164 917.981074,125.715433 C920.919241,112.724533 917.305175,98.4491747 907.111091,88.2601047 C891.317918,72.4747022 865.712129,72.4747022 849.918956,88.2601047 C843.050338,95.1253463 839.168953,103.845705 838.274808,112.80756 C837.867432,116.890593 838.080128,121.023754 838.912889,125.054443 C840.175108,130.837373 839.351101,137.258807 836.071364,142.936678 C832.953049,148.335105 828.140397,152.085015 822.693883,154.029477 C809.969576,157.982437 799.405279,168.249372 795.67346,182.169841 C789.892758,203.733102 802.695656,225.897459 824.269531,231.675318 C838.238983,235.416581 852.460594,231.369971 862.320115,222.198207" id="Combined-Shape-Copy-24" opacity="0.33"></path>
                            <path d="M333.901439,222.947314 C338.309478,219.205043 344.018545,216.947368 350.25518,216.947368 C356.814646,216.947368 362.748007,219.445596 366.874872,223.219333 C376.715488,232.115467 390.730583,235.994766 404.500673,232.306897 C426.074546,226.529038 438.877441,204.364681 433.09674,182.801419 C429.405561,169.03253 419.029884,158.838041 406.925732,154.945488 C401.13103,153.104623 395.979172,149.180643 392.699439,143.502773 C389.581122,138.104346 388.682754,132.033743 389.721231,126.347011 C392.659397,113.356112 389.04533,99.0807535 378.851246,88.8916841 C363.058075,73.1062809 337.452285,73.1062809 321.659113,88.8916841 C314.790494,95.756925 310.90911,104.477284 310.014963,113.439139 C309.607589,117.522172 309.820283,121.655333 310.653044,125.686021 C311.915265,131.468952 311.091256,137.890387 307.811522,143.568257 C304.693205,148.966684 299.880556,152.716595 294.43404,154.661056 C281.709732,158.614016 271.145434,168.880951 267.41362,182.801419 C261.632918,204.364681 274.435813,226.529038 296.009686,232.306897 C309.979142,236.04816 324.20075,232.00155 334.060273,222.829786" id="Combined-Shape-Copy-15" opacity="0.66"></path>
                            <path d="M465.33451,146.526261 C469.742548,142.783991 475.451616,140.526316 481.68825,140.526316 C488.247717,140.526316 494.181078,143.024544 498.307943,146.798281 C508.148559,155.694414 522.163654,159.573714 535.933744,155.885844 C557.507618,150.107986 570.310512,127.943629 564.529811,106.380367 C560.838632,92.6114771 550.462955,82.4169882 538.358804,78.5244354 C532.564101,76.6835701 527.412243,72.7595908 524.13251,67.0817206 C521.014193,61.6832932 520.115825,55.6126906 521.154302,49.925959 C524.092467,36.935059 520.478401,22.659701 510.284317,12.4706311 C494.491146,-3.31477179 468.885355,-3.31477179 453.092184,12.4706311 C446.223565,19.3358722 442.342181,28.0562311 441.448034,37.0180865 C441.04066,41.1011194 441.253354,45.2342803 442.086115,49.2649687 C443.348335,55.047899 442.524326,61.4693341 439.244593,67.1472045 C436.126275,72.5456316 431.313627,76.2955423 425.867111,78.2400033 C413.142803,82.1929635 402.578505,92.4598983 398.84669,106.380367 C393.065989,127.943629 405.868884,150.107986 427.442757,155.885844 C441.412213,159.627108 455.633821,155.580498 465.493344,146.408733" id="Combined-Shape-Copy-11" opacity="0.66"></path>
                            <path d="M729.464428,145.894682 C733.872467,142.152412 739.581539,139.894737 745.818174,139.894737 C752.377636,139.894737 758.311,142.392964 762.437863,146.166702 C772.278479,155.062835 786.293573,158.942134 800.063664,155.254265 C821.637539,149.476407 834.440436,127.31205 828.659735,105.748788 C824.968555,91.9798976 814.592879,81.7854095 802.488725,77.8928566 C796.69402,76.0519914 791.542163,72.128012 788.262433,66.4501416 C785.144112,61.0517142 784.245746,54.9811116 785.284222,49.29438 C788.222388,36.3034801 784.608323,22.0281221 774.414239,11.8390522 C758.621065,-3.94635074 733.015277,-3.94635074 717.222103,11.8390522 C710.353486,18.7042933 706.472101,27.4246522 705.577956,36.3865075 C705.17058,40.4695404 705.383276,44.6027014 706.216037,48.6333897 C707.478255,54.4163201 706.654248,60.8377551 703.374511,66.5156252 C700.256197,71.9140528 695.443551,75.6639629 689.99703,77.6084239 C677.272724,81.5613848 666.708426,91.8283189 662.976612,105.748788 C657.19591,127.31205 669.998804,149.476407 691.572679,155.254265 C705.542137,158.995528 719.763741,154.948918 729.623263,145.777155" id="Combined-Shape-Copy-25" opacity="0.33"></path>
                            <path d="M201.204588,146.526261 C205.612628,142.783991 211.321694,140.526316 217.558329,140.526316 C224.117796,140.526316 230.051157,143.024544 234.178021,146.798281 C244.018637,155.694414 258.033733,159.573714 271.803823,155.885844 C293.377697,150.107986 306.180592,127.943629 300.399889,106.380367 C296.708711,92.6114771 286.333034,82.4169882 274.228882,78.5244354 C268.43418,76.6835701 263.282321,72.7595908 260.002589,67.0817206 C256.884271,61.6832932 255.985904,55.6126906 257.02438,49.925959 C259.962546,36.935059 256.34848,22.659701 246.154395,12.4706311 C230.361224,-3.31477179 204.755434,-3.31477179 188.962263,12.4706311 C182.093643,19.3358722 178.21226,28.0562311 177.318113,37.0180865 C176.910738,41.1011194 177.123432,45.2342803 177.956194,49.2649687 C179.218414,55.047899 178.394405,61.4693341 175.114672,67.1472045 C171.996355,72.5456316 167.183706,76.2955423 161.73719,78.2400033 C149.012882,82.1929635 138.448583,92.4598983 134.716769,106.380367 C128.936067,127.943629 141.738962,150.107986 163.312835,155.885844 C177.282292,159.627108 191.503899,155.580498 201.363422,146.408733" id="Combined-Shape-Copy-16" opacity="0.33"></path>
                            <path d="M69.1396276,222.947314 C73.5476671,219.205043 79.2567337,216.947368 85.4933685,216.947368 C92.052835,216.947368 97.9861963,219.445596 102.113061,223.219333 C111.953677,232.115467 125.968772,235.994766 139.738862,232.306897 C161.312736,226.529038 174.115631,204.364681 168.334929,182.801419 C164.64375,169.03253 154.268073,158.838041 142.163922,154.945488 C136.36922,153.104623 131.217361,149.180643 127.937628,143.502773 C124.819311,138.104346 123.920943,132.033743 124.95942,126.347011 C127.897586,113.356112 124.283519,99.0807535 114.089435,88.8916841 C98.2962636,73.1062809 72.6904734,73.1062809 56.8973022,88.8916841 C50.0286826,95.756925 46.1472993,104.477284 45.2531524,113.439139 C44.8457779,117.522172 45.0584717,121.655333 45.8912337,125.686021 C47.1534535,131.468952 46.3294444,137.890387 43.0497113,143.568257 C39.9313939,148.966684 35.1187452,152.716595 29.6722292,154.661056 C16.9479213,158.614016 6.38362251,168.880951 2.6518085,182.801419 C-3.12889342,204.364681 9.67400161,226.529038 31.2478749,232.306897 C45.2173316,236.04816 59.438939,232.00155 69.2984617,222.829786" id="Combined-Shape-Copy-31" opacity="0.33"></path>
                            <path d="M596.76758,375.15784 C601.17562,371.41557 606.884687,369.157895 613.121321,369.157895 C619.680788,369.157895 625.614149,371.656122 629.741013,375.429859 C639.581629,384.325993 653.596725,388.205293 667.366815,384.517423 C688.940686,378.739564 701.743584,356.575207 695.962882,335.011946 C692.271703,321.243056 681.896027,311.048567 669.791872,307.156015 C663.997172,305.315149 658.845314,301.39117 655.565581,295.713299 C652.447263,290.314872 651.548896,284.244269 652.587372,278.557538 C655.525538,265.566638 651.911472,251.29128 641.717388,241.10221 C625.924216,225.316807 600.318426,225.316807 584.525255,241.10221 C577.656635,247.967451 573.775252,256.68781 572.881105,265.649665 C572.473731,269.732698 572.686425,273.865859 573.519186,277.896548 C574.781406,283.679478 573.957397,290.100913 570.677664,295.778783 C567.559347,301.17721 562.746698,304.927121 557.300182,306.871582 C544.575874,310.824542 534.011575,321.091477 530.279761,335.011946 C524.499059,356.575207 537.301955,378.739564 558.875828,384.517423 C572.845284,388.258686 587.066891,384.212076 596.926415,375.040312" id="Combined-Shape-Copy-4"></path>
                            <path d="M860.897504,374.526261 C865.305543,370.783991 871.014608,368.526316 877.251243,368.526316 C883.810711,368.526316 889.744068,371.024544 893.870931,374.798281 C903.711547,383.694414 917.726648,387.573714 931.496739,383.885844 C953.070607,378.107986 965.873505,355.943629 960.092803,334.380367 C956.401624,320.611477 946.025948,310.416988 933.921794,306.524435 C928.127095,304.68357 922.975232,300.759591 919.695502,295.081721 C916.577187,289.683293 915.678815,283.612691 916.717297,277.925959 C919.655457,264.935059 916.041391,250.659701 905.847308,240.470631 C890.054134,224.685228 864.448345,224.685228 848.655179,240.470631 C841.786555,247.335873 837.905176,256.056231 837.011024,265.018087 C836.603655,269.101119 836.816344,273.23428 837.649105,277.264969 C838.911324,283.047899 838.087317,289.469334 834.807587,295.147205 C831.689266,300.545632 826.87662,304.295542 821.430106,306.240003 C808.705793,310.192964 798.141495,320.459898 794.409683,334.380367 C788.628981,355.943629 801.431872,378.107986 823.005747,383.885844 C836.975206,387.627108 851.19681,383.580498 861.056338,374.408733" id="Combined-Shape-Copy-26" opacity="0.33"></path>
                            <path d="M332.637659,375.15784 C337.045699,371.41557 342.754765,369.157895 348.9914,369.157895 C355.550866,369.157895 361.484228,371.656122 365.611092,375.429859 C375.451708,384.325993 389.466804,388.205293 403.236894,384.517423 C424.810767,378.739564 437.613662,356.575207 431.83296,335.011946 C428.141782,321.243056 417.766105,311.048567 405.661953,307.156015 C399.867251,305.315149 394.715393,301.39117 391.43566,295.713299 C388.317342,290.314872 387.418975,284.244269 388.457451,278.557538 C391.395617,265.566638 387.781551,251.29128 377.587466,241.10221 C361.794295,225.316807 336.188505,225.316807 320.395334,241.10221 C313.526714,247.967451 309.645331,256.68781 308.751184,265.649665 C308.343809,269.732698 308.556503,273.865859 309.389265,277.896548 C310.651485,283.679478 309.827476,290.100913 306.547743,295.778783 C303.429426,301.17721 298.616777,304.927121 293.170261,306.871582 C280.445953,310.824542 269.881654,321.091477 266.14984,335.011946 C260.369138,356.575207 273.172033,378.739564 294.745906,384.517423 C308.715363,388.258686 322.93697,384.212076 332.796493,375.040312" id="Combined-Shape-Copy-17"></path>
                        </g>
                    </g>
                </g>
            </g>
        </g>
    </g>
</svg>