<?xml version="1.0" encoding="UTF-8"?>
<svg width="24px" height="17px" viewBox="0 0 24 17" version="1.1" xmlns="http://www.w3.org/2000/svg" xmlns:xlink="http://www.w3.org/1999/xlink">
    <!-- Generator: Sketch 52.5 (67469) - http://www.bohemiancoding.com/sketch -->
    <title>discord</title>
    <desc>Created with Sketch.</desc>
    <g id="Page-1" stroke="none" stroke-width="1" fill="none" fill-rule="evenodd">
        <g id="first-page" transform="translate(-708.000000, -971.000000)" fill="#BDBDBD">
            <g id="footer" transform="translate(464.000000, 902.000000)">
                <g id="icons" transform="translate(148.000000, 65.000000)">
                    <path d="M113.775401,21 L112.427807,19.4141791 C115.058824,18.7164179 116.085561,16.9402985 116.085561,16.9402985 C112.748663,20.0485075 103.636364,20.1753731 100.106952,16.9402985 C100.106952,16.9402985 101.005348,18.5895522 103.700535,19.4141791 L102.224599,21 C97.7326203,20.9365672 96,17.9552239 96,17.9552239 C96,11.358209 98.9518717,6.09328358 98.9518717,6.09328358 C101.967914,4 104.727273,4 104.727273,4 L104.919786,4.25373134 C101.197861,5.26865672 99.5935829,6.91791045 99.5935829,6.91791045 C103.957219,4 112.941176,4.25373134 116.470588,6.91791045 C116.534759,6.85447761 114.352941,5.14179104 110.951872,4.25373134 L111.272727,4 C111.272727,4 114.032086,4 117.048128,6.09328358 C117.048128,6.09328358 120,11.358209 120,17.9552239 C120,17.9552239 118.26738,20.9365672 113.775401,21 Z M104.149733,16.0522388 C105.319277,16.0522388 106.26738,15.0582441 106.26738,13.8320896 C106.26738,12.605935 105.319277,11.6119403 104.149733,11.6119403 C102.980188,11.6119403 102.032086,12.605935 102.032086,13.8320896 C102.032086,15.0582441 102.980188,16.0522388 104.149733,16.0522388 Z M111.593583,16.0522388 C112.763127,16.0522388 113.71123,15.0582441 113.71123,13.8320896 C113.71123,12.605935 112.763127,11.6119403 111.593583,11.6119403 C110.424039,11.6119403 109.475936,12.605935 109.475936,13.8320896 C109.475936,15.0582441 110.424039,16.0522388 111.593583,16.0522388 Z" id="discord"></path>
                </g>
            </g>
        </g>
    </g>
</svg>