<?xml version="1.0" encoding="UTF-8"?>
<svg width="192px" height="192px" viewBox="0 0 192 192" version="1.1" xmlns="http://www.w3.org/2000/svg" xmlns:xlink="http://www.w3.org/1999/xlink">
    <!-- Generator: Sketch 52.5 (67469) - http://www.bohemiancoding.com/sketch -->
    <title>laptop</title>
    <desc>Created with Sketch.</desc>
    <defs>
        <path d="M16,72 C7.163444,72 0,64.836556 0,56 L0,0 L192,0 L192,56 C192,64.836556 184.836556,72 176,72 L16,72 Z" id="path-1"></path>
        <linearGradient x1="50%" y1="0%" x2="50%" y2="100%" id="linearGradient-3">
            <stop stop-color="#616161" offset="0%"></stop>
            <stop stop-color="#9E9E9E" offset="100%"></stop>
        </linearGradient>
        <path d="M0,12 C0,5.372583 5.372583,0 12,0 L172,0 C178.627417,0 184,5.372583 184,12 L184,92 C184,98.627417 178.627417,104 172,104 L12,104 C5.372583,104 0,98.627417 0,92 L0,12 Z" id="path-4"></path>
        <rect id="path-6" x="0" y="0" width="160" height="4" rx="2"></rect>
    </defs>
    <g id="Page-1" stroke="none" stroke-width="1" fill="none" fill-rule="evenodd">
        <g id="fourth-page" transform="translate(-749.000000, -226.000000)">
            <g id="shape" transform="translate(499.000000, 226.000000)">
                <g id="Group" transform="translate(250.000000, 0.000000)">
                    <g id="laptop">
                        <path d="M16,192 L176,192 C184.836556,192 192,184.836556 192,176 L192,128 L0,128 L0,176 C0,184.836556 7.163444,192 16,192 Z" id="volume" fill="#616161"></path>
                        <path d="M16,184 C7.163444,184 0,176.836556 0,168 L0,16 C0,7.163444 7.163444,0 16,0 L176,0 C184.836556,0 192,7.163444 192,16 L192,168 C192,176.836556 184.836556,184 176,184 L16,184 Z" id="body" fill="#616161"></path>
                        <g id="Path-7" transform="translate(0.000000, 112.000000)">
                            <mask id="mask-2" fill="white">
                                <use xlink:href="#path-1"></use>
                            </mask>
                            <use id="Mask" fill="#9E9E9E" xlink:href="#path-1"></use>
                            <polygon fill="#000000" opacity="0.1" mask="url(#mask-2)" points="192 1.77635684e-15 -21 41 -21 -9"></polygon>
                        </g>
                        <path d="M66,148 L126,148 C127.104569,148 128,148.895431 128,150 C128,151.104569 127.104569,152 126,152 L66,152 C64.8954305,152 64,151.104569 64,150 C64,148.895431 64.8954305,148 66,148 Z M132,148 L136,148 C137.104569,148 138,148.895431 138,150 C138,151.104569 137.104569,152 136,152 L132,152 C130.895431,152 130,151.104569 130,150 C130,148.895431 130.895431,148 132,148 Z M36,148 L40,148 C41.1045695,148 42,148.895431 42,150 C42,151.104569 41.1045695,152 40,152 L36,152 C34.8954305,152 34,151.104569 34,150 C34,148.895431 34.8954305,148 36,148 Z M98,142 L102,142 C103.104569,142 104,142.895431 104,144 C104,145.104569 103.104569,146 102,146 L98,146 C96.8954305,146 96,145.104569 96,144 C96,142.895431 96.8954305,142 98,142 Z M68,142 L72,142 C73.1045695,142 74,142.895431 74,144 C74,145.104569 73.1045695,146 72,146 L68,146 C66.8954305,146 66,145.104569 66,144 C66,142.895431 66.8954305,142 68,142 Z M138,142 L142,142 C143.104569,142 144,142.895431 144,144 C144,145.104569 143.104569,146 142,146 L138,146 C136.895431,146 136,145.104569 136,144 C136,142.895431 136.895431,142 138,142 Z M26,148 L30,148 C31.1045695,148 32,148.895431 32,150 C32,151.104569 31.1045695,152 30,152 L26,152 C24.8954305,152 24,151.104569 24,150 C24,148.895431 24.8954305,148 26,148 Z M18,148 L20,148 C21.1045695,148 22,148.895431 22,150 C22,151.104569 21.1045695,152 20,152 L18,152 C16.8954305,152 16,151.104569 16,150 C16,148.895431 16.8954305,148 18,148 Z M18,142 L32,142 C33.1045695,142 34,142.895431 34,144 C34,145.104569 33.1045695,146 32,146 L18,146 C16.8954305,146 16,145.104569 16,144 C16,142.895431 16.8954305,142 18,142 Z M58,142 L62,142 C63.1045695,142 64,142.895431 64,144 C64,145.104569 63.1045695,146 62,146 L58,146 C56.8954305,146 56,145.104569 56,144 C56,142.895431 56.8954305,142 58,142 Z M128,142 L132,142 C133.104569,142 134,142.895431 134,144 C134,145.104569 133.104569,146 132,146 L128,146 C126.895431,146 126,145.104569 126,144 C126,142.895431 126.895431,142 128,142 Z M142,148 L146,148 C147.104569,148 148,148.895431 148,150 C148,151.104569 147.104569,152 146,152 L142,152 C140.895431,152 140,151.104569 140,150 C140,148.895431 140.895431,148 142,148 Z M46,148 L50,148 C51.1045695,148 52,148.895431 52,150 C52,151.104569 51.1045695,152 50,152 L46,152 C44.8954305,152 44,151.104569 44,150 C44,148.895431 44.8954305,148 46,148 Z M38,142 L42,142 C43.1045695,142 44,142.895431 44,144 C44,145.104569 43.1045695,146 42,146 L38,146 C36.8954305,146 36,145.104569 36,144 C36,142.895431 36.8954305,142 38,142 Z M108,142 L112,142 C113.104569,142 114,142.895431 114,144 C114,145.104569 113.104569,146 112,146 L108,146 C106.895431,146 106,145.104569 106,144 C106,142.895431 106.895431,142 108,142 Z M78,142 L82,142 C83.1045695,142 84,142.895431 84,144 C84,145.104569 83.1045695,146 82,146 L78,146 C76.8954305,146 76,145.104569 76,144 C76,142.895431 76.8954305,142 78,142 Z M148,142 L152,142 C153.104569,142 154,142.895431 154,144 C154,145.104569 153.104569,146 152,146 L148,146 C146.895431,146 146,145.104569 146,144 C146,142.895431 146.895431,142 148,142 Z M146,136 L150,136 C151.104569,136 152,136.895431 152,138 C152,139.104569 151.104569,140 150,140 L146,140 C144.895431,140 144,139.104569 144,138 C144,136.895431 144.895431,136 146,136 Z M144,130 L148,130 C149.104569,130 150,130.895431 150,132 C150,133.104569 149.104569,134 148,134 L144,134 C142.895431,134 142,133.104569 142,132 C142,130.895431 142.895431,130 144,130 Z M142,124 L146,124 C147.104569,124 148,124.895431 148,126 C148,127.104569 147.104569,128 146,128 L142,128 C140.895431,128 140,127.104569 140,126 C140,124.895431 140.895431,124 142,124 Z M154,130 L158,130 C159.104569,130 160,130.895431 160,132 C160,133.104569 159.104569,134 158,134 L154,134 C152.895431,134 152,133.104569 152,132 C152,130.895431 152.895431,130 154,130 Z M152,124 L156,124 C157.104569,124 158,124.895431 158,126 C158,127.104569 157.104569,128 156,128 L152,128 C150.895431,128 150,127.104569 150,126 C150,124.895431 150.895431,124 152,124 Z M162,124 L174,124 C175.104569,124 176,124.895431 176,126 C176,127.104569 175.104569,128 174,128 L162,128 C160.895431,128 160,127.104569 160,126 C160,124.895431 160.895431,124 162,124 Z M164,130 L174,130 C175.104569,130 176,130.895431 176,132 C176,133.104569 175.104569,134 174,134 L164,134 C162.895431,134 162,133.104569 162,132 C162,130.895431 162.895431,130 164,130 Z M96,136 L100,136 C101.104569,136 102,136.895431 102,138 C102,139.104569 101.104569,140 100,140 L96,140 C94.8954305,140 94,139.104569 94,138 C94,136.895431 94.8954305,136 96,136 Z M94,130 L98,130 C99.1045695,130 100,130.895431 100,132 C100,133.104569 99.1045695,134 98,134 L94,134 C92.8954305,134 92,133.104569 92,132 C92,130.895431 92.8954305,130 94,130 Z M92,124 L96,124 C97.1045695,124 98,124.895431 98,126 C98,127.104569 97.1045695,128 96,128 L92,128 C90.8954305,128 90,127.104569 90,126 C90,124.895431 90.8954305,124 92,124 Z M136,136 L140,136 C141.104569,136 142,136.895431 142,138 C142,139.104569 141.104569,140 140,140 L136,140 C134.895431,140 134,139.104569 134,138 C134,136.895431 134.895431,136 136,136 Z M134,130 L138,130 C139.104569,130 140,130.895431 140,132 C140,133.104569 139.104569,134 138,134 L134,134 C132.895431,134 132,133.104569 132,132 C132,130.895431 132.895431,130 134,130 Z M132,124 L136,124 C137.104569,124 138,124.895431 138,126 C138,127.104569 137.104569,128 136,128 L132,128 C130.895431,128 130,127.104569 130,126 C130,124.895431 130.895431,124 132,124 Z M86,136 L90,136 C91.1045695,136 92,136.895431 92,138 C92,139.104569 91.1045695,140 90,140 L86,140 C84.8954305,140 84,139.104569 84,138 C84,136.895431 84.8954305,136 86,136 Z M84,130 L88,130 C89.1045695,130 90,130.895431 90,132 C90,133.104569 89.1045695,134 88,134 L84,134 C82.8954305,134 82,133.104569 82,132 C82,130.895431 82.8954305,130 84,130 Z M82,124 L86,124 C87.1045695,124 88,124.895431 88,126 C88,127.104569 87.1045695,128 86,128 L82,128 C80.8954305,128 80,127.104569 80,126 C80,124.895431 80.8954305,124 82,124 Z M126,136 L130,136 C131.104569,136 132,136.895431 132,138 C132,139.104569 131.104569,140 130,140 L126,140 C124.895431,140 124,139.104569 124,138 C124,136.895431 124.895431,136 126,136 Z M124,130 L128,130 C129.104569,130 130,130.895431 130,132 C130,133.104569 129.104569,134 128,134 L124,134 C122.895431,134 122,133.104569 122,132 C122,130.895431 122.895431,130 124,130 Z M122,124 L126,124 C127.104569,124 128,124.895431 128,126 C128,127.104569 127.104569,128 126,128 L122,128 C120.895431,128 120,127.104569 120,126 C120,124.895431 120.895431,124 122,124 Z M76,136 L80,136 C81.1045695,136 82,136.895431 82,138 C82,139.104569 81.1045695,140 80,140 L76,140 C74.8954305,140 74,139.104569 74,138 C74,136.895431 74.8954305,136 76,136 Z M74,130 L78,130 C79.1045695,130 80,130.895431 80,132 C80,133.104569 79.1045695,134 78,134 L74,134 C72.8954305,134 72,133.104569 72,132 C72,130.895431 72.8954305,130 74,130 Z M72,124 L76,124 C77.1045695,124 78,124.895431 78,126 C78,127.104569 77.1045695,128 76,128 L72,128 C70.8954305,128 70,127.104569 70,126 C70,124.895431 70.8954305,124 72,124 Z M46,136 L50,136 C51.1045695,136 52,136.895431 52,138 C52,139.104569 51.1045695,140 50,140 L46,140 C44.8954305,140 44,139.104569 44,138 C44,136.895431 44.8954305,136 46,136 Z M44,130 L48,130 C49.1045695,130 50,130.895431 50,132 C50,133.104569 49.1045695,134 48,134 L44,134 C42.8954305,134 42,133.104569 42,132 C42,130.895431 42.8954305,130 44,130 Z M42,124 L46,124 C47.1045695,124 48,124.895431 48,126 C48,127.104569 47.1045695,128 46,128 L42,128 C40.8954305,128 40,127.104569 40,126 C40,124.895431 40.8954305,124 42,124 Z M116,136 L120,136 C121.104569,136 122,136.895431 122,138 C122,139.104569 121.104569,140 120,140 L116,140 C114.895431,140 114,139.104569 114,138 C114,136.895431 114.895431,136 116,136 Z M114,130 L118,130 C119.104569,130 120,130.895431 120,132 C120,133.104569 119.104569,134 118,134 L114,134 C112.895431,134 112,133.104569 112,132 C112,130.895431 112.895431,130 114,130 Z M112,124 L116,124 C117.104569,124 118,124.895431 118,126 C118,127.104569 117.104569,128 116,128 L112,128 C110.895431,128 110,127.104569 110,126 C110,124.895431 110.895431,124 112,124 Z M66,136 L70,136 C71.1045695,136 72,136.895431 72,138 C72,139.104569 71.1045695,140 70,140 L66,140 C64.8954305,140 64,139.104569 64,138 C64,136.895431 64.8954305,136 66,136 Z M64,130 L68,130 C69.1045695,130 70,130.895431 70,132 C70,133.104569 69.1045695,134 68,134 L64,134 C62.8954305,134 62,133.104569 62,132 C62,130.895431 62.8954305,130 64,130 Z M62,124 L66,124 C67.1045695,124 68,124.895431 68,126 C68,127.104569 67.1045695,128 66,128 L62,128 C60.8954305,128 60,127.104569 60,126 C60,124.895431 60.8954305,124 62,124 Z M36,136 L40,136 C41.1045695,136 42,136.895431 42,138 C42,139.104569 41.1045695,140 40,140 L36,140 C34.8954305,140 34,139.104569 34,138 C34,136.895431 34.8954305,136 36,136 Z M34,130 L38,130 C39.1045695,130 40,130.895431 40,132 C40,133.104569 39.1045695,134 38,134 L34,134 C32.8954305,134 32,133.104569 32,132 C32,130.895431 32.8954305,130 34,130 Z M32,124 L36,124 C37.1045695,124 38,124.895431 38,126 C38,127.104569 37.1045695,128 36,128 L32,128 C30.8954305,128 30,127.104569 30,126 C30,124.895431 30.8954305,124 32,124 Z M18,130 L28,130 C29.1045695,130 30,130.895431 30,132 C30,133.104569 29.1045695,134 28,134 L18,134 C16.8954305,134 16,133.104569 16,132 C16,130.895431 16.8954305,130 18,130 Z M18,124 L26,124 C27.1045695,124 28,124.895431 28,126 C28,127.104569 27.1045695,128 26,128 L18,128 C16.8954305,128 16,127.104569 16,126 C16,124.895431 16.8954305,124 18,124 Z M106,136 L110,136 C111.104569,136 112,136.895431 112,138 C112,139.104569 111.104569,140 110,140 L106,140 C104.895431,140 104,139.104569 104,138 C104,136.895431 104.895431,136 106,136 Z M104,130 L108,130 C109.104569,130 110,130.895431 110,132 C110,133.104569 109.104569,134 108,134 L104,134 C102.895431,134 102,133.104569 102,132 C102,130.895431 102.895431,130 104,130 Z M102,124 L106,124 C107.104569,124 108,124.895431 108,126 C108,127.104569 107.104569,128 106,128 L102,128 C100.895431,128 100,127.104569 100,126 C100,124.895431 100.895431,124 102,124 Z M56,136 L60,136 C61.1045695,136 62,136.895431 62,138 C62,139.104569 61.1045695,140 60,140 L56,140 C54.8954305,140 54,139.104569 54,138 C54,136.895431 54.8954305,136 56,136 Z M54,130 L58,130 C59.1045695,130 60,130.895431 60,132 C60,133.104569 59.1045695,134 58,134 L54,134 C52.8954305,134 52,133.104569 52,132 C52,130.895431 52.8954305,130 54,130 Z M52,124 L56,124 C57.1045695,124 58,124.895431 58,126 C58,127.104569 57.1045695,128 56,128 L52,128 C50.8954305,128 50,127.104569 50,126 C50,124.895431 50.8954305,124 52,124 Z M18,136 L30,136 C31.1045695,136 32,136.895431 32,138 C32,139.104569 31.1045695,140 30,140 L18,140 C16.8954305,140 16,139.104569 16,138 C16,136.895431 16.8954305,136 18,136 Z M152,148 L156,148 C157.104569,148 158,148.895431 158,150 C158,151.104569 157.104569,152 156,152 L152,152 C150.895431,152 150,151.104569 150,150 C150,148.895431 150.895431,148 152,148 Z M56,148 L60,148 C61.1045695,148 62,148.895431 62,150 C62,151.104569 61.1045695,152 60,152 L56,152 C54.8954305,152 54,151.104569 54,150 C54,148.895431 54.8954305,148 56,148 Z M48,142 L52,142 C53.1045695,142 54,142.895431 54,144 C54,145.104569 53.1045695,146 52,146 L48,146 C46.8954305,146 46,145.104569 46,144 C46,142.895431 46.8954305,142 48,142 Z M118,142 L122,142 C123.104569,142 124,142.895431 124,144 C124,145.104569 123.104569,146 122,146 L118,146 C116.895431,146 116,145.104569 116,144 C116,142.895431 116.895431,142 118,142 Z M88,142 L92,142 C93.1045695,142 94,142.895431 94,144 C94,145.104569 93.1045695,146 92,146 L88,146 C86.8954305,146 86,145.104569 86,144 C86,142.895431 86.8954305,142 88,142 Z M158,142 L162,142 C163.104569,142 164,142.895431 164,144 C164,145.104569 163.104569,146 162,146 L158,146 C156.895431,146 156,145.104569 156,144 C156,142.895431 156.895431,142 158,142 Z M168,142 L174,142 C175.104569,142 176,142.895431 176,144 C176,145.104569 175.104569,146 174,146 L168,146 C166.895431,146 166,145.104569 166,144 C166,142.895431 166.895431,142 168,142 Z M156,136 L174,136 C175.104569,136 176,136.895431 176,138 C176,139.104569 175.104569,140 174,140 L156,140 C154.895431,140 154,139.104569 154,138 C154,136.895431 154.895431,136 156,136 Z M162,148 L174,148 C175.104569,148 176,148.895431 176,150 C176,151.104569 175.104569,152 174,152 L162,152 C160.895431,152 160,151.104569 160,150 C160,148.895431 160.895431,148 162,148 Z" id="keys" fill="#424242"></path>
                        <path d="M180,125 C179.723858,125 179.5,124.776142 179.5,124.5 C179.5,124.223858 179.723858,124 180,124 C180.276142,124 180.5,124.223858 180.5,124.5 C180.5,124.776142 180.276142,125 180,125 Z M180,131 C179.723858,131 179.5,130.776142 179.5,130.5 C179.5,130.223858 179.723858,130 180,130 C180.276142,130 180.5,130.223858 180.5,130.5 C180.5,130.776142 180.276142,131 180,131 Z M180,128 C179.723858,128 179.5,127.776142 179.5,127.5 C179.5,127.223858 179.723858,127 180,127 C180.276142,127 180.5,127.223858 180.5,127.5 C180.5,127.776142 180.276142,128 180,128 Z M180,134 C179.723858,134 179.5,133.776142 179.5,133.5 C179.5,133.223858 179.723858,133 180,133 C180.276142,133 180.5,133.223858 180.5,133.5 C180.5,133.776142 180.276142,134 180,134 Z M184,125 C183.723858,125 183.5,124.776142 183.5,124.5 C183.5,124.223858 183.723858,124 184,124 C184.276142,124 184.5,124.223858 184.5,124.5 C184.5,124.776142 184.276142,125 184,125 Z M184,131 C183.723858,131 183.5,130.776142 183.5,130.5 C183.5,130.223858 183.723858,130 184,130 C184.276142,130 184.5,130.223858 184.5,130.5 C184.5,130.776142 184.276142,131 184,131 Z M184,128 C183.723858,128 183.5,127.776142 183.5,127.5 C183.5,127.223858 183.723858,127 184,127 C184.276142,127 184.5,127.223858 184.5,127.5 C184.5,127.776142 184.276142,128 184,128 Z M184,134 C183.723858,134 183.5,133.776142 183.5,133.5 C183.5,133.223858 183.723858,133 184,133 C184.276142,133 184.5,133.223858 184.5,133.5 C184.5,133.776142 184.276142,134 184,134 Z M188,125 C187.723858,125 187.5,124.776142 187.5,124.5 C187.5,124.223858 187.723858,124 188,124 C188.276142,124 188.5,124.223858 188.5,124.5 C188.5,124.776142 188.276142,125 188,125 Z M188,131 C187.723858,131 187.5,130.776142 187.5,130.5 C187.5,130.223858 187.723858,130 188,130 C188.276142,130 188.5,130.223858 188.5,130.5 C188.5,130.776142 188.276142,131 188,131 Z M188,128 C187.723858,128 187.5,127.776142 187.5,127.5 C187.5,127.223858 187.723858,127 188,127 C188.276142,127 188.5,127.223858 188.5,127.5 C188.5,127.776142 188.276142,128 188,128 Z M188,134 C187.723858,134 187.5,133.776142 187.5,133.5 C187.5,133.223858 187.723858,133 188,133 C188.276142,133 188.5,133.223858 188.5,133.5 C188.5,133.776142 188.276142,134 188,134 Z M186,125 C185.723858,125 185.5,124.776142 185.5,124.5 C185.5,124.223858 185.723858,124 186,124 C186.276142,124 186.5,124.223858 186.5,124.5 C186.5,124.776142 186.276142,125 186,125 Z M186,131 C185.723858,131 185.5,130.776142 185.5,130.5 C185.5,130.223858 185.723858,130 186,130 C186.276142,130 186.5,130.223858 186.5,130.5 C186.5,130.776142 186.276142,131 186,131 Z M186,128 C185.723858,128 185.5,127.776142 185.5,127.5 C185.5,127.223858 185.723858,127 186,127 C186.276142,127 186.5,127.223858 186.5,127.5 C186.5,127.776142 186.276142,128 186,128 Z M186,134 C185.723858,134 185.5,133.776142 185.5,133.5 C185.5,133.223858 185.723858,133 186,133 C186.276142,133 186.5,133.223858 186.5,133.5 C186.5,133.776142 186.276142,134 186,134 Z M187,126.5 C186.723858,126.5 186.5,126.276142 186.5,126 C186.5,125.723858 186.723858,125.5 187,125.5 C187.276142,125.5 187.5,125.723858 187.5,126 C187.5,126.276142 187.276142,126.5 187,126.5 Z M187,132.5 C186.723858,132.5 186.5,132.276142 186.5,132 C186.5,131.723858 186.723858,131.5 187,131.5 C187.276142,131.5 187.5,131.723858 187.5,132 C187.5,132.276142 187.276142,132.5 187,132.5 Z M187,129.5 C186.723858,129.5 186.5,129.276142 186.5,129 C186.5,128.723858 186.723858,128.5 187,128.5 C187.276142,128.5 187.5,128.723858 187.5,129 C187.5,129.276142 187.276142,129.5 187,129.5 Z M187,135.5 C186.723858,135.5 186.5,135.276142 186.5,135 C186.5,134.723858 186.723858,134.5 187,134.5 C187.276142,134.5 187.5,134.723858 187.5,135 C187.5,135.276142 187.276142,135.5 187,135.5 Z M185,126.5 C184.723858,126.5 184.5,126.276142 184.5,126 C184.5,125.723858 184.723858,125.5 185,125.5 C185.276142,125.5 185.5,125.723858 185.5,126 C185.5,126.276142 185.276142,126.5 185,126.5 Z M185,132.5 C184.723858,132.5 184.5,132.276142 184.5,132 C184.5,131.723858 184.723858,131.5 185,131.5 C185.276142,131.5 185.5,131.723858 185.5,132 C185.5,132.276142 185.276142,132.5 185,132.5 Z M185,129.5 C184.723858,129.5 184.5,129.276142 184.5,129 C184.5,128.723858 184.723858,128.5 185,128.5 C185.276142,128.5 185.5,128.723858 185.5,129 C185.5,129.276142 185.276142,129.5 185,129.5 Z M185,135.5 C184.723858,135.5 184.5,135.276142 184.5,135 C184.5,134.723858 184.723858,134.5 185,134.5 C185.276142,134.5 185.5,134.723858 185.5,135 C185.5,135.276142 185.276142,135.5 185,135.5 Z M183,126.5 C182.723858,126.5 182.5,126.276142 182.5,126 C182.5,125.723858 182.723858,125.5 183,125.5 C183.276142,125.5 183.5,125.723858 183.5,126 C183.5,126.276142 183.276142,126.5 183,126.5 Z M183,132.5 C182.723858,132.5 182.5,132.276142 182.5,132 C182.5,131.723858 182.723858,131.5 183,131.5 C183.276142,131.5 183.5,131.723858 183.5,132 C183.5,132.276142 183.276142,132.5 183,132.5 Z M183,129.5 C182.723858,129.5 182.5,129.276142 182.5,129 C182.5,128.723858 182.723858,128.5 183,128.5 C183.276142,128.5 183.5,128.723858 183.5,129 C183.5,129.276142 183.276142,129.5 183,129.5 Z M183,135.5 C182.723858,135.5 182.5,135.276142 182.5,135 C182.5,134.723858 182.723858,134.5 183,134.5 C183.276142,134.5 183.5,134.723858 183.5,135 C183.5,135.276142 183.276142,135.5 183,135.5 Z M181,126.5 C180.723858,126.5 180.5,126.276142 180.5,126 C180.5,125.723858 180.723858,125.5 181,125.5 C181.276142,125.5 181.5,125.723858 181.5,126 C181.5,126.276142 181.276142,126.5 181,126.5 Z M181,132.5 C180.723858,132.5 180.5,132.276142 180.5,132 C180.5,131.723858 180.723858,131.5 181,131.5 C181.276142,131.5 181.5,131.723858 181.5,132 C181.5,132.276142 181.276142,132.5 181,132.5 Z M181,129.5 C180.723858,129.5 180.5,129.276142 180.5,129 C180.5,128.723858 180.723858,128.5 181,128.5 C181.276142,128.5 181.5,128.723858 181.5,129 C181.5,129.276142 181.276142,129.5 181,129.5 Z M181,135.5 C180.723858,135.5 180.5,135.276142 180.5,135 C180.5,134.723858 180.723858,134.5 181,134.5 C181.276142,134.5 181.5,134.723858 181.5,135 C181.5,135.276142 181.276142,135.5 181,135.5 Z M182,125 C181.723858,125 181.5,124.776142 181.5,124.5 C181.5,124.223858 181.723858,124 182,124 C182.276142,124 182.5,124.223858 182.5,124.5 C182.5,124.776142 182.276142,125 182,125 Z M182,131 C181.723858,131 181.5,130.776142 181.5,130.5 C181.5,130.223858 181.723858,130 182,130 C182.276142,130 182.5,130.223858 182.5,130.5 C182.5,130.776142 182.276142,131 182,131 Z M182,128 C181.723858,128 181.5,127.776142 181.5,127.5 C181.5,127.223858 181.723858,127 182,127 C182.276142,127 182.5,127.223858 182.5,127.5 C182.5,127.776142 182.276142,128 182,128 Z M182,134 C181.723858,134 181.5,133.776142 181.5,133.5 C181.5,133.223858 181.723858,133 182,133 C182.276142,133 182.5,133.223858 182.5,133.5 C182.5,133.776142 182.276142,134 182,134 Z M180,137 C179.723858,137 179.5,136.776142 179.5,136.5 C179.5,136.223858 179.723858,136 180,136 C180.276142,136 180.5,136.223858 180.5,136.5 C180.5,136.776142 180.276142,137 180,137 Z M180,143 C179.723858,143 179.5,142.776142 179.5,142.5 C179.5,142.223858 179.723858,142 180,142 C180.276142,142 180.5,142.223858 180.5,142.5 C180.5,142.776142 180.276142,143 180,143 Z M180,140 C179.723858,140 179.5,139.776142 179.5,139.5 C179.5,139.223858 179.723858,139 180,139 C180.276142,139 180.5,139.223858 180.5,139.5 C180.5,139.776142 180.276142,140 180,140 Z M180,146 C179.723858,146 179.5,145.776142 179.5,145.5 C179.5,145.223858 179.723858,145 180,145 C180.276142,145 180.5,145.223858 180.5,145.5 C180.5,145.776142 180.276142,146 180,146 Z M184,137 C183.723858,137 183.5,136.776142 183.5,136.5 C183.5,136.223858 183.723858,136 184,136 C184.276142,136 184.5,136.223858 184.5,136.5 C184.5,136.776142 184.276142,137 184,137 Z M184,143 C183.723858,143 183.5,142.776142 183.5,142.5 C183.5,142.223858 183.723858,142 184,142 C184.276142,142 184.5,142.223858 184.5,142.5 C184.5,142.776142 184.276142,143 184,143 Z M184,140 C183.723858,140 183.5,139.776142 183.5,139.5 C183.5,139.223858 183.723858,139 184,139 C184.276142,139 184.5,139.223858 184.5,139.5 C184.5,139.776142 184.276142,140 184,140 Z M184,146 C183.723858,146 183.5,145.776142 183.5,145.5 C183.5,145.223858 183.723858,145 184,145 C184.276142,145 184.5,145.223858 184.5,145.5 C184.5,145.776142 184.276142,146 184,146 Z M188,137 C187.723858,137 187.5,136.776142 187.5,136.5 C187.5,136.223858 187.723858,136 188,136 C188.276142,136 188.5,136.223858 188.5,136.5 C188.5,136.776142 188.276142,137 188,137 Z M188,143 C187.723858,143 187.5,142.776142 187.5,142.5 C187.5,142.223858 187.723858,142 188,142 C188.276142,142 188.5,142.223858 188.5,142.5 C188.5,142.776142 188.276142,143 188,143 Z M188,140 C187.723858,140 187.5,139.776142 187.5,139.5 C187.5,139.223858 187.723858,139 188,139 C188.276142,139 188.5,139.223858 188.5,139.5 C188.5,139.776142 188.276142,140 188,140 Z M188,146 C187.723858,146 187.5,145.776142 187.5,145.5 C187.5,145.223858 187.723858,145 188,145 C188.276142,145 188.5,145.223858 188.5,145.5 C188.5,145.776142 188.276142,146 188,146 Z M186,137 C185.723858,137 185.5,136.776142 185.5,136.5 C185.5,136.223858 185.723858,136 186,136 C186.276142,136 186.5,136.223858 186.5,136.5 C186.5,136.776142 186.276142,137 186,137 Z M186,143 C185.723858,143 185.5,142.776142 185.5,142.5 C185.5,142.223858 185.723858,142 186,142 C186.276142,142 186.5,142.223858 186.5,142.5 C186.5,142.776142 186.276142,143 186,143 Z M186,140 C185.723858,140 185.5,139.776142 185.5,139.5 C185.5,139.223858 185.723858,139 186,139 C186.276142,139 186.5,139.223858 186.5,139.5 C186.5,139.776142 186.276142,140 186,140 Z M186,146 C185.723858,146 185.5,145.776142 185.5,145.5 C185.5,145.223858 185.723858,145 186,145 C186.276142,145 186.5,145.223858 186.5,145.5 C186.5,145.776142 186.276142,146 186,146 Z M187,138.5 C186.723858,138.5 186.5,138.276142 186.5,138 C186.5,137.723858 186.723858,137.5 187,137.5 C187.276142,137.5 187.5,137.723858 187.5,138 C187.5,138.276142 187.276142,138.5 187,138.5 Z M187,144.5 C186.723858,144.5 186.5,144.276142 186.5,144 C186.5,143.723858 186.723858,143.5 187,143.5 C187.276142,143.5 187.5,143.723858 187.5,144 C187.5,144.276142 187.276142,144.5 187,144.5 Z M187,141.5 C186.723858,141.5 186.5,141.276142 186.5,141 C186.5,140.723858 186.723858,140.5 187,140.5 C187.276142,140.5 187.5,140.723858 187.5,141 C187.5,141.276142 187.276142,141.5 187,141.5 Z M187,147.5 C186.723858,147.5 186.5,147.276142 186.5,147 C186.5,146.723858 186.723858,146.5 187,146.5 C187.276142,146.5 187.5,146.723858 187.5,147 C187.5,147.276142 187.276142,147.5 187,147.5 Z M185,138.5 C184.723858,138.5 184.5,138.276142 184.5,138 C184.5,137.723858 184.723858,137.5 185,137.5 C185.276142,137.5 185.5,137.723858 185.5,138 C185.5,138.276142 185.276142,138.5 185,138.5 Z M185,144.5 C184.723858,144.5 184.5,144.276142 184.5,144 C184.5,143.723858 184.723858,143.5 185,143.5 C185.276142,143.5 185.5,143.723858 185.5,144 C185.5,144.276142 185.276142,144.5 185,144.5 Z M185,141.5 C184.723858,141.5 184.5,141.276142 184.5,141 C184.5,140.723858 184.723858,140.5 185,140.5 C185.276142,140.5 185.5,140.723858 185.5,141 C185.5,141.276142 185.276142,141.5 185,141.5 Z M185,147.5 C184.723858,147.5 184.5,147.276142 184.5,147 C184.5,146.723858 184.723858,146.5 185,146.5 C185.276142,146.5 185.5,146.723858 185.5,147 C185.5,147.276142 185.276142,147.5 185,147.5 Z M183,138.5 C182.723858,138.5 182.5,138.276142 182.5,138 C182.5,137.723858 182.723858,137.5 183,137.5 C183.276142,137.5 183.5,137.723858 183.5,138 C183.5,138.276142 183.276142,138.5 183,138.5 Z M183,144.5 C182.723858,144.5 182.5,144.276142 182.5,144 C182.5,143.723858 182.723858,143.5 183,143.5 C183.276142,143.5 183.5,143.723858 183.5,144 C183.5,144.276142 183.276142,144.5 183,144.5 Z M183,141.5 C182.723858,141.5 182.5,141.276142 182.5,141 C182.5,140.723858 182.723858,140.5 183,140.5 C183.276142,140.5 183.5,140.723858 183.5,141 C183.5,141.276142 183.276142,141.5 183,141.5 Z M183,147.5 C182.723858,147.5 182.5,147.276142 182.5,147 C182.5,146.723858 182.723858,146.5 183,146.5 C183.276142,146.5 183.5,146.723858 183.5,147 C183.5,147.276142 183.276142,147.5 183,147.5 Z M181,138.5 C180.723858,138.5 180.5,138.276142 180.5,138 C180.5,137.723858 180.723858,137.5 181,137.5 C181.276142,137.5 181.5,137.723858 181.5,138 C181.5,138.276142 181.276142,138.5 181,138.5 Z M181,144.5 C180.723858,144.5 180.5,144.276142 180.5,144 C180.5,143.723858 180.723858,143.5 181,143.5 C181.276142,143.5 181.5,143.723858 181.5,144 C181.5,144.276142 181.276142,144.5 181,144.5 Z M181,141.5 C180.723858,141.5 180.5,141.276142 180.5,141 C180.5,140.723858 180.723858,140.5 181,140.5 C181.276142,140.5 181.5,140.723858 181.5,141 C181.5,141.276142 181.276142,141.5 181,141.5 Z M181,147.5 C180.723858,147.5 180.5,147.276142 180.5,147 C180.5,146.723858 180.723858,146.5 181,146.5 C181.276142,146.5 181.5,146.723858 181.5,147 C181.5,147.276142 181.276142,147.5 181,147.5 Z M182,137 C181.723858,137 181.5,136.776142 181.5,136.5 C181.5,136.223858 181.723858,136 182,136 C182.276142,136 182.5,136.223858 182.5,136.5 C182.5,136.776142 182.276142,137 182,137 Z M182,143 C181.723858,143 181.5,142.776142 181.5,142.5 C181.5,142.223858 181.723858,142 182,142 C182.276142,142 182.5,142.223858 182.5,142.5 C182.5,142.776142 182.276142,143 182,143 Z M182,140 C181.723858,140 181.5,139.776142 181.5,139.5 C181.5,139.223858 181.723858,139 182,139 C182.276142,139 182.5,139.223858 182.5,139.5 C182.5,139.776142 182.276142,140 182,140 Z M182,146 C181.723858,146 181.5,145.776142 181.5,145.5 C181.5,145.223858 181.723858,145 182,145 C182.276142,145 182.5,145.223858 182.5,145.5 C182.5,145.776142 182.276142,146 182,146 Z M180,149 C179.723858,149 179.5,148.776142 179.5,148.5 C179.5,148.223858 179.723858,148 180,148 C180.276142,148 180.5,148.223858 180.5,148.5 C180.5,148.776142 180.276142,149 180,149 Z M180,152 C179.723858,152 179.5,151.776142 179.5,151.5 C179.5,151.223858 179.723858,151 180,151 C180.276142,151 180.5,151.223858 180.5,151.5 C180.5,151.776142 180.276142,152 180,152 Z M184,149 C183.723858,149 183.5,148.776142 183.5,148.5 C183.5,148.223858 183.723858,148 184,148 C184.276142,148 184.5,148.223858 184.5,148.5 C184.5,148.776142 184.276142,149 184,149 Z M184,152 C183.723858,152 183.5,151.776142 183.5,151.5 C183.5,151.223858 183.723858,151 184,151 C184.276142,151 184.5,151.223858 184.5,151.5 C184.5,151.776142 184.276142,152 184,152 Z M188,149 C187.723858,149 187.5,148.776142 187.5,148.5 C187.5,148.223858 187.723858,148 188,148 C188.276142,148 188.5,148.223858 188.5,148.5 C188.5,148.776142 188.276142,149 188,149 Z M188,152 C187.723858,152 187.5,151.776142 187.5,151.5 C187.5,151.223858 187.723858,151 188,151 C188.276142,151 188.5,151.223858 188.5,151.5 C188.5,151.776142 188.276142,152 188,152 Z M186,149 C185.723858,149 185.5,148.776142 185.5,148.5 C185.5,148.223858 185.723858,148 186,148 C186.276142,148 186.5,148.223858 186.5,148.5 C186.5,148.776142 186.276142,149 186,149 Z M186,152 C185.723858,152 185.5,151.776142 185.5,151.5 C185.5,151.223858 185.723858,151 186,151 C186.276142,151 186.5,151.223858 186.5,151.5 C186.5,151.776142 186.276142,152 186,152 Z M187,150.5 C186.723858,150.5 186.5,150.276142 186.5,150 C186.5,149.723858 186.723858,149.5 187,149.5 C187.276142,149.5 187.5,149.723858 187.5,150 C187.5,150.276142 187.276142,150.5 187,150.5 Z M185,150.5 C184.723858,150.5 184.5,150.276142 184.5,150 C184.5,149.723858 184.723858,149.5 185,149.5 C185.276142,149.5 185.5,149.723858 185.5,150 C185.5,150.276142 185.276142,150.5 185,150.5 Z M183,150.5 C182.723858,150.5 182.5,150.276142 182.5,150 C182.5,149.723858 182.723858,149.5 183,149.5 C183.276142,149.5 183.5,149.723858 183.5,150 C183.5,150.276142 183.276142,150.5 183,150.5 Z M181,150.5 C180.723858,150.5 180.5,150.276142 180.5,150 C180.5,149.723858 180.723858,149.5 181,149.5 C181.276142,149.5 181.5,149.723858 181.5,150 C181.5,150.276142 181.276142,150.5 181,150.5 Z M182,149 C181.723858,149 181.5,148.776142 181.5,148.5 C181.5,148.223858 181.723858,148 182,148 C182.276142,148 182.5,148.223858 182.5,148.5 C182.5,148.776142 182.276142,149 182,149 Z M182,152 C181.723858,152 181.5,151.776142 181.5,151.5 C181.5,151.223858 181.723858,151 182,151 C182.276142,151 182.5,151.223858 182.5,151.5 C182.5,151.776142 182.276142,152 182,152 Z" id="speakers-R" fill="#757575"></path>
                        <path d="M82.5,184 L109.817177,184 C108.993504,186.330385 106.771026,188 104.158589,188 L88.1585886,188 C85.5461509,188 83.3236728,186.330385 82.5,184 Z M82.5,184 C83.3236728,182.834808 85.5461509,182 88.1585886,182 L104.158589,182 C106.771026,182 108.993504,182.834808 109.817177,184 C104.491017,184 100.496397,184 97.8333166,184 C94.4259129,184 89.3148074,184 82.5,184 Z" id="edge" fill="url(#linearGradient-3)"></path>
                        <g id="screen" transform="translate(4.000000, 4.000000)">
                            <mask id="mask-5" fill="white">
                                <use xlink:href="#path-4"></use>
                            </mask>
                            <use id="Mask" fill="#212121" xlink:href="#path-4"></use>
                            <g id="logo" mask="url(#mask-5)" fill="#757575" fill-rule="nonzero">
                                <g transform="translate(67.500000, 29.000000)" id="Combined-Shape">
                                    <path d="M9.24829051,45.4810128 C2.72340732,43.7326756 -1.14874828,37.0259054 0.599588898,30.5010222 C1.69693595,26.4056672 4.80179156,23.2268373 8.75475531,21.991564 C10.1465948,21.4903668 11.3060691,20.5412073 12.0505055,19.2518056 C12.8387668,17.8864969 13.0773918,16.3035568 12.7532557,14.8175295 C12.5018557,13.6001186 12.4369571,12.3500056 12.560315,11.1130063 C12.8384587,8.32385569 14.0586024,5.70806846 16.0820391,3.68463173 C20.8585851,-1.09191428 28.6028964,-1.09191428 33.3794424,3.68463173 C36.3772599,6.68244922 37.5776265,10.9601392 36.6706831,15.0009075 C36.4110227,16.4453834 36.6615819,17.9350911 37.4111454,19.2333732 C38.2022453,20.6035983 39.4558572,21.5981902 40.9359674,22.0686298 C44.7348505,23.2909071 47.7798392,26.4627439 48.8618926,30.5010222 C50.6102298,37.0259054 46.7380742,43.7326756 40.213191,45.4810128 C36.153974,46.5686767 31.8929587,45.4982229 28.8305676,42.7283728 C27.7755858,41.7631888 26.2937553,41.1866667 24.7307407,41.1866667 C23.257897,41.1866667 21.8658661,41.6961826 20.754325,42.612212 C17.6919522,45.4652911 13.3673114,46.5847011 9.24829051,45.4810128 Z M24.5513265,20.2977778 C28.9499677,20.2977778 32.5157709,16.7319745 32.5157709,12.3333333 C32.5157709,7.93469213 28.9499677,4.36888889 24.5513265,4.36888889 C20.1526852,4.36888889 16.586882,7.93469213 16.586882,12.3333333 C16.586882,16.7319745 20.1526852,20.2977778 24.5513265,20.2977778 Z M32.88591,40.5640779 C36.695245,42.7633985 41.5662228,41.4582239 43.7655434,37.6488889 C45.964864,33.8395539 44.6596894,28.9685761 40.8503544,26.7692555 C37.0410194,24.5699348 32.1700416,25.8751094 29.970721,29.6844444 C27.7714004,33.4937795 29.0765749,38.3647573 32.88591,40.5640779 Z M5.3371095,37.6488889 C7.5364301,41.4582239 12.4074079,42.7633985 16.2167429,40.5640779 C20.026078,38.3647573 21.3312525,33.4937795 19.1319319,29.6844444 C16.9326113,25.8751094 12.0616335,24.5699348 8.25229849,26.7692555 C4.44296346,28.9685761 3.13778889,33.8395539 5.3371095,37.6488889 Z M24.5513265,18.5911111 C21.0952512,18.5911111 18.2935487,15.7894086 18.2935487,12.3333333 C18.2935487,8.8772581 21.0952512,6.07555556 24.5513265,6.07555556 C28.0074017,6.07555556 30.8091042,8.8772581 30.8091042,12.3333333 C30.8091042,15.7894086 28.0074017,18.5911111 24.5513265,18.5911111 Z M42.2875267,36.7955556 C40.5594891,39.7886045 36.7322923,40.8140988 33.7392433,39.0860612 C30.7461944,37.3580236 29.7207001,33.5308267 31.4487377,30.5377778 C33.1767753,27.5447288 37.0039721,26.5192345 39.9970211,28.2472721 C42.99007,29.9753098 44.0155643,33.8025066 42.2875267,36.7955556 Z M6.81512619,36.7955556 C5.08708857,33.8025066 6.11258287,29.9753098 9.10563182,28.2472721 C12.0986808,26.5192345 15.9258776,27.5447288 17.6539152,30.5377778 C19.3819529,33.5308267 18.3564586,37.3580236 15.3634096,39.0860612 C12.3703607,40.8140988 8.5431638,39.7886045 6.81512619,36.7955556 Z"></path>
                                </g>
                            </g>
                            <polygon id="Path-5" fill="#FFFFFF" opacity="0.1" mask="url(#mask-5)" points="129 -12.5 62.5 108.5 -72 117.5 -36 -36"></polygon>
                        </g>
                        <rect id="trackpad" fill="#424242" x="64" y="156" width="64" height="20" rx="4"></rect>
                        <g id="touch-bar" transform="translate(16.000000, 116.000000)">
                            <mask id="mask-7" fill="white">
                                <use xlink:href="#path-6"></use>
                            </mask>
                            <use id="Mask" fill="#212121" xlink:href="#path-6"></use>
                            <polygon id="Path-6" fill="#424242" mask="url(#mask-7)" points="43.5 21.5 86.5 -44 -47 -33 2.5 21.5"></polygon>
                        </g>
                        <path d="M4,125 C3.72385763,125 3.5,124.776142 3.5,124.5 C3.5,124.223858 3.72385763,124 4,124 C4.27614237,124 4.5,124.223858 4.5,124.5 C4.5,124.776142 4.27614237,125 4,125 Z M4,131 C3.72385763,131 3.5,130.776142 3.5,130.5 C3.5,130.223858 3.72385763,130 4,130 C4.27614237,130 4.5,130.223858 4.5,130.5 C4.5,130.776142 4.27614237,131 4,131 Z M4,128 C3.72385763,128 3.5,127.776142 3.5,127.5 C3.5,127.223858 3.72385763,127 4,127 C4.27614237,127 4.5,127.223858 4.5,127.5 C4.5,127.776142 4.27614237,128 4,128 Z M4,134 C3.72385763,134 3.5,133.776142 3.5,133.5 C3.5,133.223858 3.72385763,133 4,133 C4.27614237,133 4.5,133.223858 4.5,133.5 C4.5,133.776142 4.27614237,134 4,134 Z M8,125 C7.72385763,125 7.5,124.776142 7.5,124.5 C7.5,124.223858 7.72385763,124 8,124 C8.27614237,124 8.5,124.223858 8.5,124.5 C8.5,124.776142 8.27614237,125 8,125 Z M8,131 C7.72385763,131 7.5,130.776142 7.5,130.5 C7.5,130.223858 7.72385763,130 8,130 C8.27614237,130 8.5,130.223858 8.5,130.5 C8.5,130.776142 8.27614237,131 8,131 Z M8,128 C7.72385763,128 7.5,127.776142 7.5,127.5 C7.5,127.223858 7.72385763,127 8,127 C8.27614237,127 8.5,127.223858 8.5,127.5 C8.5,127.776142 8.27614237,128 8,128 Z M8,134 C7.72385763,134 7.5,133.776142 7.5,133.5 C7.5,133.223858 7.72385763,133 8,133 C8.27614237,133 8.5,133.223858 8.5,133.5 C8.5,133.776142 8.27614237,134 8,134 Z M12,125 C11.7238576,125 11.5,124.776142 11.5,124.5 C11.5,124.223858 11.7238576,124 12,124 C12.2761424,124 12.5,124.223858 12.5,124.5 C12.5,124.776142 12.2761424,125 12,125 Z M12,131 C11.7238576,131 11.5,130.776142 11.5,130.5 C11.5,130.223858 11.7238576,130 12,130 C12.2761424,130 12.5,130.223858 12.5,130.5 C12.5,130.776142 12.2761424,131 12,131 Z M12,128 C11.7238576,128 11.5,127.776142 11.5,127.5 C11.5,127.223858 11.7238576,127 12,127 C12.2761424,127 12.5,127.223858 12.5,127.5 C12.5,127.776142 12.2761424,128 12,128 Z M12,134 C11.7238576,134 11.5,133.776142 11.5,133.5 C11.5,133.223858 11.7238576,133 12,133 C12.2761424,133 12.5,133.223858 12.5,133.5 C12.5,133.776142 12.2761424,134 12,134 Z M10,125 C9.72385763,125 9.5,124.776142 9.5,124.5 C9.5,124.223858 9.72385763,124 10,124 C10.2761424,124 10.5,124.223858 10.5,124.5 C10.5,124.776142 10.2761424,125 10,125 Z M10,131 C9.72385763,131 9.5,130.776142 9.5,130.5 C9.5,130.223858 9.72385763,130 10,130 C10.2761424,130 10.5,130.223858 10.5,130.5 C10.5,130.776142 10.2761424,131 10,131 Z M10,128 C9.72385763,128 9.5,127.776142 9.5,127.5 C9.5,127.223858 9.72385763,127 10,127 C10.2761424,127 10.5,127.223858 10.5,127.5 C10.5,127.776142 10.2761424,128 10,128 Z M10,134 C9.72385763,134 9.5,133.776142 9.5,133.5 C9.5,133.223858 9.72385763,133 10,133 C10.2761424,133 10.5,133.223858 10.5,133.5 C10.5,133.776142 10.2761424,134 10,134 Z M11,126.5 C10.7238576,126.5 10.5,126.276142 10.5,126 C10.5,125.723858 10.7238576,125.5 11,125.5 C11.2761424,125.5 11.5,125.723858 11.5,126 C11.5,126.276142 11.2761424,126.5 11,126.5 Z M11,132.5 C10.7238576,132.5 10.5,132.276142 10.5,132 C10.5,131.723858 10.7238576,131.5 11,131.5 C11.2761424,131.5 11.5,131.723858 11.5,132 C11.5,132.276142 11.2761424,132.5 11,132.5 Z M11,129.5 C10.7238576,129.5 10.5,129.276142 10.5,129 C10.5,128.723858 10.7238576,128.5 11,128.5 C11.2761424,128.5 11.5,128.723858 11.5,129 C11.5,129.276142 11.2761424,129.5 11,129.5 Z M11,135.5 C10.7238576,135.5 10.5,135.276142 10.5,135 C10.5,134.723858 10.7238576,134.5 11,134.5 C11.2761424,134.5 11.5,134.723858 11.5,135 C11.5,135.276142 11.2761424,135.5 11,135.5 Z M9,126.5 C8.72385763,126.5 8.5,126.276142 8.5,126 C8.5,125.723858 8.72385763,125.5 9,125.5 C9.27614237,125.5 9.5,125.723858 9.5,126 C9.5,126.276142 9.27614237,126.5 9,126.5 Z M9,132.5 C8.72385763,132.5 8.5,132.276142 8.5,132 C8.5,131.723858 8.72385763,131.5 9,131.5 C9.27614237,131.5 9.5,131.723858 9.5,132 C9.5,132.276142 9.27614237,132.5 9,132.5 Z M9,129.5 C8.72385763,129.5 8.5,129.276142 8.5,129 C8.5,128.723858 8.72385763,128.5 9,128.5 C9.27614237,128.5 9.5,128.723858 9.5,129 C9.5,129.276142 9.27614237,129.5 9,129.5 Z M9,135.5 C8.72385763,135.5 8.5,135.276142 8.5,135 C8.5,134.723858 8.72385763,134.5 9,134.5 C9.27614237,134.5 9.5,134.723858 9.5,135 C9.5,135.276142 9.27614237,135.5 9,135.5 Z M7,126.5 C6.72385763,126.5 6.5,126.276142 6.5,126 C6.5,125.723858 6.72385763,125.5 7,125.5 C7.27614237,125.5 7.5,125.723858 7.5,126 C7.5,126.276142 7.27614237,126.5 7,126.5 Z M7,132.5 C6.72385763,132.5 6.5,132.276142 6.5,132 C6.5,131.723858 6.72385763,131.5 7,131.5 C7.27614237,131.5 7.5,131.723858 7.5,132 C7.5,132.276142 7.27614237,132.5 7,132.5 Z M7,129.5 C6.72385763,129.5 6.5,129.276142 6.5,129 C6.5,128.723858 6.72385763,128.5 7,128.5 C7.27614237,128.5 7.5,128.723858 7.5,129 C7.5,129.276142 7.27614237,129.5 7,129.5 Z M7,135.5 C6.72385763,135.5 6.5,135.276142 6.5,135 C6.5,134.723858 6.72385763,134.5 7,134.5 C7.27614237,134.5 7.5,134.723858 7.5,135 C7.5,135.276142 7.27614237,135.5 7,135.5 Z M5,126.5 C4.72385763,126.5 4.5,126.276142 4.5,126 C4.5,125.723858 4.72385763,125.5 5,125.5 C5.27614237,125.5 5.5,125.723858 5.5,126 C5.5,126.276142 5.27614237,126.5 5,126.5 Z M5,132.5 C4.72385763,132.5 4.5,132.276142 4.5,132 C4.5,131.723858 4.72385763,131.5 5,131.5 C5.27614237,131.5 5.5,131.723858 5.5,132 C5.5,132.276142 5.27614237,132.5 5,132.5 Z M5,129.5 C4.72385763,129.5 4.5,129.276142 4.5,129 C4.5,128.723858 4.72385763,128.5 5,128.5 C5.27614237,128.5 5.5,128.723858 5.5,129 C5.5,129.276142 5.27614237,129.5 5,129.5 Z M5,135.5 C4.72385763,135.5 4.5,135.276142 4.5,135 C4.5,134.723858 4.72385763,134.5 5,134.5 C5.27614237,134.5 5.5,134.723858 5.5,135 C5.5,135.276142 5.27614237,135.5 5,135.5 Z M6,125 C5.72385763,125 5.5,124.776142 5.5,124.5 C5.5,124.223858 5.72385763,124 6,124 C6.27614237,124 6.5,124.223858 6.5,124.5 C6.5,124.776142 6.27614237,125 6,125 Z M6,131 C5.72385763,131 5.5,130.776142 5.5,130.5 C5.5,130.223858 5.72385763,130 6,130 C6.27614237,130 6.5,130.223858 6.5,130.5 C6.5,130.776142 6.27614237,131 6,131 Z M6,128 C5.72385763,128 5.5,127.776142 5.5,127.5 C5.5,127.223858 5.72385763,127 6,127 C6.27614237,127 6.5,127.223858 6.5,127.5 C6.5,127.776142 6.27614237,128 6,128 Z M6,134 C5.72385763,134 5.5,133.776142 5.5,133.5 C5.5,133.223858 5.72385763,133 6,133 C6.27614237,133 6.5,133.223858 6.5,133.5 C6.5,133.776142 6.27614237,134 6,134 Z M4,137 C3.72385763,137 3.5,136.776142 3.5,136.5 C3.5,136.223858 3.72385763,136 4,136 C4.27614237,136 4.5,136.223858 4.5,136.5 C4.5,136.776142 4.27614237,137 4,137 Z M4,143 C3.72385763,143 3.5,142.776142 3.5,142.5 C3.5,142.223858 3.72385763,142 4,142 C4.27614237,142 4.5,142.223858 4.5,142.5 C4.5,142.776142 4.27614237,143 4,143 Z M4,140 C3.72385763,140 3.5,139.776142 3.5,139.5 C3.5,139.223858 3.72385763,139 4,139 C4.27614237,139 4.5,139.223858 4.5,139.5 C4.5,139.776142 4.27614237,140 4,140 Z M4,146 C3.72385763,146 3.5,145.776142 3.5,145.5 C3.5,145.223858 3.72385763,145 4,145 C4.27614237,145 4.5,145.223858 4.5,145.5 C4.5,145.776142 4.27614237,146 4,146 Z M8,137 C7.72385763,137 7.5,136.776142 7.5,136.5 C7.5,136.223858 7.72385763,136 8,136 C8.27614237,136 8.5,136.223858 8.5,136.5 C8.5,136.776142 8.27614237,137 8,137 Z M8,143 C7.72385763,143 7.5,142.776142 7.5,142.5 C7.5,142.223858 7.72385763,142 8,142 C8.27614237,142 8.5,142.223858 8.5,142.5 C8.5,142.776142 8.27614237,143 8,143 Z M8,140 C7.72385763,140 7.5,139.776142 7.5,139.5 C7.5,139.223858 7.72385763,139 8,139 C8.27614237,139 8.5,139.223858 8.5,139.5 C8.5,139.776142 8.27614237,140 8,140 Z M8,146 C7.72385763,146 7.5,145.776142 7.5,145.5 C7.5,145.223858 7.72385763,145 8,145 C8.27614237,145 8.5,145.223858 8.5,145.5 C8.5,145.776142 8.27614237,146 8,146 Z M12,137 C11.7238576,137 11.5,136.776142 11.5,136.5 C11.5,136.223858 11.7238576,136 12,136 C12.2761424,136 12.5,136.223858 12.5,136.5 C12.5,136.776142 12.2761424,137 12,137 Z M12,143 C11.7238576,143 11.5,142.776142 11.5,142.5 C11.5,142.223858 11.7238576,142 12,142 C12.2761424,142 12.5,142.223858 12.5,142.5 C12.5,142.776142 12.2761424,143 12,143 Z M12,140 C11.7238576,140 11.5,139.776142 11.5,139.5 C11.5,139.223858 11.7238576,139 12,139 C12.2761424,139 12.5,139.223858 12.5,139.5 C12.5,139.776142 12.2761424,140 12,140 Z M12,146 C11.7238576,146 11.5,145.776142 11.5,145.5 C11.5,145.223858 11.7238576,145 12,145 C12.2761424,145 12.5,145.223858 12.5,145.5 C12.5,145.776142 12.2761424,146 12,146 Z M10,137 C9.72385763,137 9.5,136.776142 9.5,136.5 C9.5,136.223858 9.72385763,136 10,136 C10.2761424,136 10.5,136.223858 10.5,136.5 C10.5,136.776142 10.2761424,137 10,137 Z M10,143 C9.72385763,143 9.5,142.776142 9.5,142.5 C9.5,142.223858 9.72385763,142 10,142 C10.2761424,142 10.5,142.223858 10.5,142.5 C10.5,142.776142 10.2761424,143 10,143 Z M10,140 C9.72385763,140 9.5,139.776142 9.5,139.5 C9.5,139.223858 9.72385763,139 10,139 C10.2761424,139 10.5,139.223858 10.5,139.5 C10.5,139.776142 10.2761424,140 10,140 Z M10,146 C9.72385763,146 9.5,145.776142 9.5,145.5 C9.5,145.223858 9.72385763,145 10,145 C10.2761424,145 10.5,145.223858 10.5,145.5 C10.5,145.776142 10.2761424,146 10,146 Z M11,138.5 C10.7238576,138.5 10.5,138.276142 10.5,138 C10.5,137.723858 10.7238576,137.5 11,137.5 C11.2761424,137.5 11.5,137.723858 11.5,138 C11.5,138.276142 11.2761424,138.5 11,138.5 Z M11,144.5 C10.7238576,144.5 10.5,144.276142 10.5,144 C10.5,143.723858 10.7238576,143.5 11,143.5 C11.2761424,143.5 11.5,143.723858 11.5,144 C11.5,144.276142 11.2761424,144.5 11,144.5 Z M11,141.5 C10.7238576,141.5 10.5,141.276142 10.5,141 C10.5,140.723858 10.7238576,140.5 11,140.5 C11.2761424,140.5 11.5,140.723858 11.5,141 C11.5,141.276142 11.2761424,141.5 11,141.5 Z M11,147.5 C10.7238576,147.5 10.5,147.276142 10.5,147 C10.5,146.723858 10.7238576,146.5 11,146.5 C11.2761424,146.5 11.5,146.723858 11.5,147 C11.5,147.276142 11.2761424,147.5 11,147.5 Z M9,138.5 C8.72385763,138.5 8.5,138.276142 8.5,138 C8.5,137.723858 8.72385763,137.5 9,137.5 C9.27614237,137.5 9.5,137.723858 9.5,138 C9.5,138.276142 9.27614237,138.5 9,138.5 Z M9,144.5 C8.72385763,144.5 8.5,144.276142 8.5,144 C8.5,143.723858 8.72385763,143.5 9,143.5 C9.27614237,143.5 9.5,143.723858 9.5,144 C9.5,144.276142 9.27614237,144.5 9,144.5 Z M9,141.5 C8.72385763,141.5 8.5,141.276142 8.5,141 C8.5,140.723858 8.72385763,140.5 9,140.5 C9.27614237,140.5 9.5,140.723858 9.5,141 C9.5,141.276142 9.27614237,141.5 9,141.5 Z M9,147.5 C8.72385763,147.5 8.5,147.276142 8.5,147 C8.5,146.723858 8.72385763,146.5 9,146.5 C9.27614237,146.5 9.5,146.723858 9.5,147 C9.5,147.276142 9.27614237,147.5 9,147.5 Z M7,138.5 C6.72385763,138.5 6.5,138.276142 6.5,138 C6.5,137.723858 6.72385763,137.5 7,137.5 C7.27614237,137.5 7.5,137.723858 7.5,138 C7.5,138.276142 7.27614237,138.5 7,138.5 Z M7,144.5 C6.72385763,144.5 6.5,144.276142 6.5,144 C6.5,143.723858 6.72385763,143.5 7,143.5 C7.27614237,143.5 7.5,143.723858 7.5,144 C7.5,144.276142 7.27614237,144.5 7,144.5 Z M7,141.5 C6.72385763,141.5 6.5,141.276142 6.5,141 C6.5,140.723858 6.72385763,140.5 7,140.5 C7.27614237,140.5 7.5,140.723858 7.5,141 C7.5,141.276142 7.27614237,141.5 7,141.5 Z M7,147.5 C6.72385763,147.5 6.5,147.276142 6.5,147 C6.5,146.723858 6.72385763,146.5 7,146.5 C7.27614237,146.5 7.5,146.723858 7.5,147 C7.5,147.276142 7.27614237,147.5 7,147.5 Z M5,138.5 C4.72385763,138.5 4.5,138.276142 4.5,138 C4.5,137.723858 4.72385763,137.5 5,137.5 C5.27614237,137.5 5.5,137.723858 5.5,138 C5.5,138.276142 5.27614237,138.5 5,138.5 Z M5,144.5 C4.72385763,144.5 4.5,144.276142 4.5,144 C4.5,143.723858 4.72385763,143.5 5,143.5 C5.27614237,143.5 5.5,143.723858 5.5,144 C5.5,144.276142 5.27614237,144.5 5,144.5 Z M5,141.5 C4.72385763,141.5 4.5,141.276142 4.5,141 C4.5,140.723858 4.72385763,140.5 5,140.5 C5.27614237,140.5 5.5,140.723858 5.5,141 C5.5,141.276142 5.27614237,141.5 5,141.5 Z M5,147.5 C4.72385763,147.5 4.5,147.276142 4.5,147 C4.5,146.723858 4.72385763,146.5 5,146.5 C5.27614237,146.5 5.5,146.723858 5.5,147 C5.5,147.276142 5.27614237,147.5 5,147.5 Z M6,137 C5.72385763,137 5.5,136.776142 5.5,136.5 C5.5,136.223858 5.72385763,136 6,136 C6.27614237,136 6.5,136.223858 6.5,136.5 C6.5,136.776142 6.27614237,137 6,137 Z M6,143 C5.72385763,143 5.5,142.776142 5.5,142.5 C5.5,142.223858 5.72385763,142 6,142 C6.27614237,142 6.5,142.223858 6.5,142.5 C6.5,142.776142 6.27614237,143 6,143 Z M6,140 C5.72385763,140 5.5,139.776142 5.5,139.5 C5.5,139.223858 5.72385763,139 6,139 C6.27614237,139 6.5,139.223858 6.5,139.5 C6.5,139.776142 6.27614237,140 6,140 Z M6,146 C5.72385763,146 5.5,145.776142 5.5,145.5 C5.5,145.223858 5.72385763,145 6,145 C6.27614237,145 6.5,145.223858 6.5,145.5 C6.5,145.776142 6.27614237,146 6,146 Z M4,149 C3.72385763,149 3.5,148.776142 3.5,148.5 C3.5,148.223858 3.72385763,148 4,148 C4.27614237,148 4.5,148.223858 4.5,148.5 C4.5,148.776142 4.27614237,149 4,149 Z M4,152 C3.72385763,152 3.5,151.776142 3.5,151.5 C3.5,151.223858 3.72385763,151 4,151 C4.27614237,151 4.5,151.223858 4.5,151.5 C4.5,151.776142 4.27614237,152 4,152 Z M8,149 C7.72385763,149 7.5,148.776142 7.5,148.5 C7.5,148.223858 7.72385763,148 8,148 C8.27614237,148 8.5,148.223858 8.5,148.5 C8.5,148.776142 8.27614237,149 8,149 Z M8,152 C7.72385763,152 7.5,151.776142 7.5,151.5 C7.5,151.223858 7.72385763,151 8,151 C8.27614237,151 8.5,151.223858 8.5,151.5 C8.5,151.776142 8.27614237,152 8,152 Z M12,149 C11.7238576,149 11.5,148.776142 11.5,148.5 C11.5,148.223858 11.7238576,148 12,148 C12.2761424,148 12.5,148.223858 12.5,148.5 C12.5,148.776142 12.2761424,149 12,149 Z M12,152 C11.7238576,152 11.5,151.776142 11.5,151.5 C11.5,151.223858 11.7238576,151 12,151 C12.2761424,151 12.5,151.223858 12.5,151.5 C12.5,151.776142 12.2761424,152 12,152 Z M10,149 C9.72385763,149 9.5,148.776142 9.5,148.5 C9.5,148.223858 9.72385763,148 10,148 C10.2761424,148 10.5,148.223858 10.5,148.5 C10.5,148.776142 10.2761424,149 10,149 Z M10,152 C9.72385763,152 9.5,151.776142 9.5,151.5 C9.5,151.223858 9.72385763,151 10,151 C10.2761424,151 10.5,151.223858 10.5,151.5 C10.5,151.776142 10.2761424,152 10,152 Z M11,150.5 C10.7238576,150.5 10.5,150.276142 10.5,150 C10.5,149.723858 10.7238576,149.5 11,149.5 C11.2761424,149.5 11.5,149.723858 11.5,150 C11.5,150.276142 11.2761424,150.5 11,150.5 Z M9,150.5 C8.72385763,150.5 8.5,150.276142 8.5,150 C8.5,149.723858 8.72385763,149.5 9,149.5 C9.27614237,149.5 9.5,149.723858 9.5,150 C9.5,150.276142 9.27614237,150.5 9,150.5 Z M7,150.5 C6.72385763,150.5 6.5,150.276142 6.5,150 C6.5,149.723858 6.72385763,149.5 7,149.5 C7.27614237,149.5 7.5,149.723858 7.5,150 C7.5,150.276142 7.27614237,150.5 7,150.5 Z M5,150.5 C4.72385763,150.5 4.5,150.276142 4.5,150 C4.5,149.723858 4.72385763,149.5 5,149.5 C5.27614237,149.5 5.5,149.723858 5.5,150 C5.5,150.276142 5.27614237,150.5 5,150.5 Z M6,149 C5.72385763,149 5.5,148.776142 5.5,148.5 C5.5,148.223858 5.72385763,148 6,148 C6.27614237,148 6.5,148.223858 6.5,148.5 C6.5,148.776142 6.27614237,149 6,149 Z M6,152 C5.72385763,152 5.5,151.776142 5.5,151.5 C5.5,151.223858 5.72385763,151 6,151 C6.27614237,151 6.5,151.223858 6.5,151.5 C6.5,151.776142 6.27614237,152 6,152 Z" id="speakers-L" fill="#757575"></path>
                    </g>
                </g>
            </g>
        </g>
    </g>
</svg>