<?xml version="1.0" encoding="UTF-8"?>
<svg width="24px" height="25px" viewBox="0 0 24 25" version="1.1" xmlns="http://www.w3.org/2000/svg" xmlns:xlink="http://www.w3.org/1999/xlink">
    <!-- Generator: Sketch 52.5 (67469) - http://www.bohemiancoding.com/sketch -->
    <title>linkedin</title>
    <desc>Created with Sketch.</desc>
    <g id="Page-1" stroke="none" stroke-width="1" fill="none" fill-rule="evenodd">
        <g id="first-page" transform="translate(-756.000000, -967.000000)" fill="#BDBDBD">
            <g id="footer" transform="translate(464.000000, 902.000000)">
                <g id="icons" transform="translate(148.000000, 65.000000)">
                    <path d="M148,0.5 L164,0.5 C166.209139,0.5 168,2.290861 168,4.5 L168,20.5 C168,22.709139 166.209139,24.5 164,24.5 L148,24.5 C145.790861,24.5 144,22.709139 144,20.5 L144,4.5 C144,2.290861 145.790861,0.5 148,0.5 Z M150.65625,8.703125 C151.614119,8.703125 152.390625,7.92661886 152.390625,6.96875 C152.390625,6.01088114 151.614119,5.234375 150.65625,5.234375 C149.698381,5.234375 148.921875,6.01088114 148.921875,6.96875 C148.921875,7.92661886 149.698381,8.703125 150.65625,8.703125 Z M157.010937,10.7918339 L157.010937,9.59375 L153.917187,9.59375 L153.917187,18.875 L157.010937,18.875 L157.010937,13.1583456 C157.202818,12.4407501 157.764659,11.84375 158.625,11.84375 C159.75,11.84375 160.171875,12.6875 160.171875,13.953125 L160.171875,18.875 L163.265625,18.875 L163.265625,13.578125 C163.265625,10.71875 161.765625,9.40625 159.703125,9.40625 C158.206616,9.40625 157.412708,10.1915093 157.010937,10.7918339 Z M149.135937,9.59375 L149.135937,18.875 L152.229687,18.875 L152.229687,9.59375 L149.135937,9.59375 Z" id="linkedin"></path>
                </g>
            </g>
        </g>
    </g>
</svg>