<?xml version="1.0" encoding="UTF-8"?>
<svg width="297px" height="276px" viewBox="0 0 297 276" version="1.1" xmlns="http://www.w3.org/2000/svg" xmlns:xlink="http://www.w3.org/1999/xlink">
    <!-- Generator: Sketch 52.5 (67469) - http://www.bohemiancoding.com/sketch -->
    <title>Shape</title>
    <desc>Created with Sketch.</desc>
    <g id="Page-1" stroke="none" stroke-width="1" fill="none" fill-rule="evenodd">
        <g id="first-page" transform="translate(-572.000000, -162.000000)" fill="#424242">
            <path d="M691.352477,418.888793 L691.631771,418.682031 C674.294846,434.817541 649.287658,441.936577 624.723851,435.354725 C586.788483,425.189975 564.275951,386.197124 574.440702,348.261757 C581.002701,323.772043 599.578899,305.709843 621.953245,298.755561 C631.530365,295.334749 639.992898,288.737685 645.476128,279.240452 C651.243191,269.251606 652.692123,257.954637 650.472643,247.780963 C649.00832,240.689938 648.634321,233.418636 649.350645,226.235523 C650.922908,210.469295 657.747909,195.127923 669.825647,183.050184 C697.596264,155.279568 742.621329,155.279568 770.391945,183.050184 C788.317161,200.9754 794.672113,226.089456 789.50566,248.943817 C787.679609,258.948252 789.259293,269.628016 794.742524,279.125249 C800.509587,289.114095 809.568583,296.017392 819.757951,299.255952 C841.041819,306.103961 859.286345,324.038709 865.776891,348.261757 C875.941643,386.197124 853.429109,425.189975 815.493743,435.354725 C791.280499,441.842644 766.63644,435.017951 749.332761,419.367345 C742.076109,412.728364 731.642921,408.333333 720.108796,408.333333 C709.142336,408.333333 699.103547,412.305169 691.352477,418.888793 Z M718.987457,273.777778 C696.650607,273.777778 678.543013,255.670183 678.543013,233.333333 C678.543013,210.996483 696.650607,192.888889 718.987457,192.888889 C741.324307,192.888889 759.431901,210.996484 759.431901,233.333333 C759.431901,255.670183 741.324307,273.777778 718.987457,273.777778 Z M718.987457,281.777778 C745.742585,281.777778 767.431901,260.088461 767.431901,233.333333 C767.431901,206.578206 745.742585,184.888889 718.987457,184.888889 C692.232329,184.888889 670.543013,206.578205 670.543013,233.333333 C670.543013,260.088461 692.232329,281.777778 718.987457,281.777778 Z M816.189715,331.640751 C835.533995,342.809175 842.161834,367.544609 830.993409,386.888889 C819.824984,406.233168 795.08955,412.861008 775.745271,401.692582 C756.400991,390.524158 749.773151,365.788724 760.941576,346.444444 C772.110001,327.100165 796.845436,320.472326 816.189715,331.640751 Z M771.745271,408.620786 C794.91589,421.99835 824.544048,414.059509 837.921612,390.888889 C851.299177,367.718268 843.360336,338.09011 820.189714,324.712548 C797.019095,311.334984 767.390937,319.273824 754.013373,342.444444 C740.635809,365.615065 748.574651,395.243223 771.745271,408.620786 Z M662.229643,401.692582 C642.885364,412.861008 618.14993,406.233168 606.981505,386.888889 C595.81308,367.544609 602.440919,342.809175 621.785199,331.640751 C641.129478,320.472326 665.864913,327.100165 677.033337,346.444444 C688.201762,365.788724 681.573923,390.524158 662.229643,401.692582 Z M617.785199,324.712548 C594.614579,338.09011 586.675738,367.718268 600.053302,390.888889 C613.430866,414.059509 643.059023,421.99835 666.229643,408.620786 C689.400264,395.243223 697.339105,365.615065 683.961541,342.444444 C670.583977,319.273824 640.955819,311.334984 617.785199,324.712548 Z" id="Shape"></path>
        </g>
    </g>
</svg>