<svg xmlns="http://www.w3.org/2000/svg" viewBox="0 0 240 40"><defs><style>.cls-1{fill:#424242;}</style></defs><g id="Layer_2" data-name="Layer 2"><g id="Layer_1-2" data-name="Layer 1"><path class="cls-1" d="M26.77,0a7.29,7.29,0,0,1-1.45,4.78,4.94,4.94,0,0,1-4,1.76H17.66V40H9.12V6.54H0A7.29,7.29,0,0,1,1.45,1.75,4.94,4.94,0,0,1,5.48,0Z"/><path class="cls-1" d="M32.67,26.69v4.86a5,5,0,0,0,.65,2.69,2.06,2.06,0,0,0,3.54,0,4.87,4.87,0,0,0,.66-2.69V29.87H46v1.68a9,9,0,0,1-2,6.11A7.37,7.37,0,0,1,38.14,40H32a7.38,7.38,0,0,1-5.87-2.31,9,9,0,0,1-2-6.11V18.81a9,9,0,0,1,2-6.1A7.35,7.35,0,0,1,32,10.39h6.1A7.34,7.34,0,0,1,44,12.71a8.93,8.93,0,0,1,2,6.1Q46,26.69,32.67,26.69Zm4.85-8.17A4.14,4.14,0,0,0,36.86,16a2.24,2.24,0,0,0-3.54,0,4.21,4.21,0,0,0-.65,2.54V23C35.9,23,37.52,21.5,37.52,18.52Z"/><path class="cls-1" d="M64.13,29.87h8.52v1.68a9,9,0,0,1-2,6.11A7.38,7.38,0,0,1,64.76,40h-6.1a7.37,7.37,0,0,1-5.87-2.31,9,9,0,0,1-2-6.11V18.81a8.93,8.93,0,0,1,2-6.1,7.34,7.34,0,0,1,5.87-2.32h6.1a7.35,7.35,0,0,1,5.87,2.32,9,9,0,0,1,2,6.1v1.68H64.13v-2A4.21,4.21,0,0,0,63.48,16a2.24,2.24,0,0,0-3.54,0,4.14,4.14,0,0,0-.65,2.54v13a4.87,4.87,0,0,0,.65,2.69,2.06,2.06,0,0,0,3.54,0,5,5,0,0,0,.65-2.69Z"/><path class="cls-1" d="M90.75,39.94V18.52A4.14,4.14,0,0,0,90.09,16a2.23,2.23,0,0,0-3.53,0,4.14,4.14,0,0,0-.66,2.54V39.94H77.39V0h8.54V10.39h5.45a7.35,7.35,0,0,1,5.87,2.32,9,9,0,0,1,2,6.1V39.94Z"/><path class="cls-1" d="M125.88,19.68V40h-8.51V19.39a5.35,5.35,0,0,0-.79-3.27,2.52,2.52,0,0,0-2.09-1,2.13,2.13,0,0,0-1.84.72V40h-8.54V10.39h10.11q6.84,0,9.25,2.75A9.57,9.57,0,0,1,125.88,19.68Z"/><path class="cls-1" d="M150.48,12.71a8.93,8.93,0,0,1,2,6.1V31.55a9,9,0,0,1-2,6.11A7.37,7.37,0,0,1,144.61,40h-6.1a7.38,7.38,0,0,1-5.87-2.31,9,9,0,0,1-2-6.11V18.81a9,9,0,0,1,2-6.1,7.35,7.35,0,0,1,5.87-2.32h6.1A7.34,7.34,0,0,1,150.48,12.71Zm-8.92,22.54a2,2,0,0,0,1.77-1,4.87,4.87,0,0,0,.65-2.69v-13a4.14,4.14,0,0,0-.65-2.54,2.24,2.24,0,0,0-3.54,0,4.21,4.21,0,0,0-.65,2.54v13a5,5,0,0,0,.65,2.69A2,2,0,0,0,141.56,35.25Z"/><path class="cls-1" d="M157.35,31.29V0h8.51V30.71a3.66,3.66,0,0,0,.79,2.55,3.37,3.37,0,0,0,2.62.86h3.22L172,40h-6.89q-3.94,0-5.84-2.32A9.81,9.81,0,0,1,157.35,31.29Z"/><path class="cls-1" d="M195.44,12.71a9,9,0,0,1,2,6.1V31.55a9,9,0,0,1-2,6.11A7.38,7.38,0,0,1,189.57,40h-6.11a7.36,7.36,0,0,1-5.86-2.31,9,9,0,0,1-2-6.11V18.81a8.93,8.93,0,0,1,2-6.1,7.33,7.33,0,0,1,5.86-2.32h6.11A7.35,7.35,0,0,1,195.44,12.71Zm-8.92,22.54a2,2,0,0,0,1.77-1,5,5,0,0,0,.65-2.69v-13a4.21,4.21,0,0,0-.65-2.54,2.11,2.11,0,0,0-1.77-.87,2.08,2.08,0,0,0-1.77.87,4.14,4.14,0,0,0-.66,2.54v13a4.87,4.87,0,0,0,.66,2.69A2,2,0,0,0,186.52,35.25Z"/><path class="cls-1" d="M217.86,10.39v5.3h-7V40H202.3V8.13q0-4.08,2-6.1a7.34,7.34,0,0,1,5.45-2h8.09V5.3h-4.42a2.88,2.88,0,0,0-2,.58,2.93,2.93,0,0,0-.65,2.25v2.26Z"/><path class="cls-1" d="M230.23,15.69v15.6a3.71,3.71,0,0,0,.78,2.55,3.44,3.44,0,0,0,2.62.86H240V40H229.7a7.11,7.11,0,0,1-6-2.6,10.65,10.65,0,0,1-2-6.69V2.89h8.52v7.5h7.05v5.3Z"/></g></g></svg>