<svg xmlns="http://www.w3.org/2000/svg" viewBox="0 0 240 53.43"><defs><style>.cls-1{fill:#51c0d9;}.cls-2{fill:#2d89c1;}</style></defs><g id="Layer_2" data-name="Layer 2"><g id="Layer_1-2" data-name="Layer 1"><polygon class="cls-1" points="16.12 36.12 16.12 32.52 16.12 28.92 9.62 32.52 16.12 36.12"/><polygon class="cls-1" points="22.12 14.04 22.12 26.46 37.32 39.01 43.74 31.89 22.12 14.04"/><polygon class="cls-2" points="37.28 14.65 37.28 39.01 43.79 35.41 43.79 18.25 37.28 14.65"/><polygon class="cls-2" points="16.12 16.78 16.12 11.75 9.62 15.35 9.62 32.52 15.92 29.04 31.23 41.67 31.23 29.25 16.12 16.78"/><path class="cls-2" d="M26.71,53.43A26.72,26.72,0,1,1,53.43,26.71,26.75,26.75,0,0,1,26.71,53.43Zm0-51.29A24.58,24.58,0,1,0,51.29,26.71,24.6,24.6,0,0,0,26.71,2.14Z"/><polygon class="cls-1" points="37.28 14.65 37.28 18.25 37.28 21.84 43.79 18.25 37.28 14.65"/><path class="cls-2" d="M81.78,0A5.38,5.38,0,0,1,80.7,3.54a3.65,3.65,0,0,1-3,1.31H75V29.68H68.67V4.85H61.91A5.39,5.39,0,0,1,63,1.3,3.65,3.65,0,0,1,66,0Z"/><path class="cls-2" d="M86.15,19.8v3.61a3.59,3.59,0,0,0,.49,2,1.52,1.52,0,0,0,2.62,0,3.68,3.68,0,0,0,.49-2V22.16h6.31v1.25a6.62,6.62,0,0,1-1.49,4.53,5.46,5.46,0,0,1-4.36,1.72H85.68a5.45,5.45,0,0,1-4.35-1.72,6.62,6.62,0,0,1-1.5-4.53V14a6.62,6.62,0,0,1,1.5-4.53,5.45,5.45,0,0,1,4.35-1.72h4.53a5.46,5.46,0,0,1,4.36,1.72A6.62,6.62,0,0,1,96.06,14Q96.06,19.81,86.15,19.8Zm3.6-6.05a3.13,3.13,0,0,0-.49-1.89,1.65,1.65,0,0,0-2.62,0,3.07,3.07,0,0,0-.49,1.89v3.3Q89.75,17.05,89.75,13.75Z"/><path class="cls-2" d="M109.5,22.16h6.32v1.25a6.62,6.62,0,0,1-1.5,4.53A5.46,5.46,0,0,1,110,29.66h-4.53a5.45,5.45,0,0,1-4.35-1.72,6.62,6.62,0,0,1-1.5-4.53V14a6.62,6.62,0,0,1,1.5-4.53,5.45,5.45,0,0,1,4.35-1.72H110a5.46,5.46,0,0,1,4.36,1.72,6.62,6.62,0,0,1,1.5,4.53v1.25H109.5V13.75a3.07,3.07,0,0,0-.49-1.89,1.65,1.65,0,0,0-2.62,0,3.07,3.07,0,0,0-.49,1.89v9.66a3.59,3.59,0,0,0,.49,2,1.52,1.52,0,0,0,2.62,0,3.59,3.59,0,0,0,.49-2Z"/><path class="cls-2" d="M129.25,29.64V13.75a3.07,3.07,0,0,0-.49-1.89,1.65,1.65,0,0,0-2.62,0,3.07,3.07,0,0,0-.49,1.89V29.64h-6.32V0h6.34V7.71h4a5.45,5.45,0,0,1,4.35,1.72,6.62,6.62,0,0,1,1.5,4.53V29.64Z"/><path class="cls-2" d="M155.32,14.6V29.68H149V14.39a4,4,0,0,0-.58-2.43,1.88,1.88,0,0,0-1.56-.75,1.56,1.56,0,0,0-1.36.54V29.68h-6.34v-22h7.51q5.07,0,6.86,2A7.13,7.13,0,0,1,155.32,14.6Z"/><path class="cls-2" d="M173.57,9.43a6.62,6.62,0,0,1,1.5,4.53v9.45a6.62,6.62,0,0,1-1.5,4.53,5.45,5.45,0,0,1-4.35,1.72h-4.53a5.46,5.46,0,0,1-4.36-1.72,6.67,6.67,0,0,1-1.49-4.53V14a6.67,6.67,0,0,1,1.49-4.53,5.46,5.46,0,0,1,4.36-1.72h4.53A5.45,5.45,0,0,1,173.57,9.43ZM167,26.16a1.51,1.51,0,0,0,1.32-.75,3.68,3.68,0,0,0,.48-2V13.75a3.14,3.14,0,0,0-.48-1.89,1.58,1.58,0,0,0-1.32-.65,1.55,1.55,0,0,0-1.31.65,3.13,3.13,0,0,0-.49,1.89v9.66a3.68,3.68,0,0,0,.49,2A1.49,1.49,0,0,0,167,26.16Z"/><path class="cls-2" d="M178.67,23.22V0H185V22.79a2.73,2.73,0,0,0,.59,1.89,2.5,2.5,0,0,0,1.94.64h2.39l-.39,4.36H184.4A5.23,5.23,0,0,1,180.07,28,7.24,7.24,0,0,1,178.67,23.22Z"/><path class="cls-2" d="M206.93,9.43a6.62,6.62,0,0,1,1.5,4.53v9.45a6.62,6.62,0,0,1-1.5,4.53,5.45,5.45,0,0,1-4.35,1.72h-4.53a5.46,5.46,0,0,1-4.36-1.72,6.62,6.62,0,0,1-1.49-4.53V14a6.62,6.62,0,0,1,1.49-4.53,5.46,5.46,0,0,1,4.36-1.72h4.53A5.45,5.45,0,0,1,206.93,9.43Zm-6.62,16.73a1.49,1.49,0,0,0,1.31-.75,3.59,3.59,0,0,0,.49-2V13.75a3.07,3.07,0,0,0-.49-1.89,1.65,1.65,0,0,0-2.62,0,3.13,3.13,0,0,0-.49,1.89v9.66a3.68,3.68,0,0,0,.49,2A1.49,1.49,0,0,0,200.31,26.16Z"/><path class="cls-2" d="M223.57,7.71v3.93h-5.23v18H212V6a6.2,6.2,0,0,1,1.49-4.54,5.47,5.47,0,0,1,4-1.5h6V3.93h-3.28a2.12,2.12,0,0,0-1.46.43A2.23,2.23,0,0,0,218.34,6V7.71Z"/><path class="cls-2" d="M232.75,11.64V23.22a2.72,2.72,0,0,0,.58,1.89,2.53,2.53,0,0,0,1.95.64H240v3.93h-7.64a5.25,5.25,0,0,1-4.43-1.93,7.85,7.85,0,0,1-1.5-5V2.15h6.32V7.71H238v3.93Z"/><path class="cls-1" d="M160.62,49.13v4.3h-3.33V43a1.25,1.25,0,0,1,.53-1.08,2.34,2.34,0,0,1,1.42-.39H163a4.12,4.12,0,0,1,2.75.82,2.84,2.84,0,0,1,.95,2.28v1.63a2.61,2.61,0,0,1-.95,2,4,4,0,0,1-2.75.86Zm0-6.17v4.77H162a1.26,1.26,0,0,0,1-.43,1.59,1.59,0,0,0,.35-1v-2a1.41,1.41,0,0,0-.35-1,1.3,1.3,0,0,0-1-.39Z"/><path class="cls-1" d="M175.39,41.56a3.4,3.4,0,0,1,2.3.69,2.3,2.3,0,0,1,.79,1.81v6.86a2.3,2.3,0,0,1-.79,1.81,3.4,3.4,0,0,1-2.3.69h-3.21a3.37,3.37,0,0,1-2.29-.69,2.27,2.27,0,0,1-.79-1.81V44.06a2.27,2.27,0,0,1,.79-1.81,3.37,3.37,0,0,1,2.29-.69Zm-.25,9V44.32a1.41,1.41,0,0,0-.35-1,1.3,1.3,0,0,0-1-.39,1.29,1.29,0,0,0-1,.39,1.37,1.37,0,0,0-.36,1v6.26a1.52,1.52,0,0,0,.36,1,1.22,1.22,0,0,0,1,.43,1.23,1.23,0,0,0,1-.43A1.57,1.57,0,0,0,175.14,50.58Z"/><path class="cls-1" d="M180.91,44.72v-.66a2.27,2.27,0,0,1,.79-1.81,3.37,3.37,0,0,1,2.29-.69h3.21a3.4,3.4,0,0,1,2.3.69,2.3,2.3,0,0,1,.79,1.81v1.12H187v-1a1.18,1.18,0,0,0-.35-.92,1.4,1.4,0,0,0-1-.35,1.38,1.38,0,0,0-1,.35,1.19,1.19,0,0,0-.36.92v1c0,.53.4.92,1.2,1.16l2.58.77c1.51.39,2.27,1.21,2.27,2.47v1.3a2.3,2.3,0,0,1-.79,1.81,3.4,3.4,0,0,1-2.3.69H184a3.37,3.37,0,0,1-2.29-.69,2.27,2.27,0,0,1-.79-1.81V49.46h3.33v1.2a1.35,1.35,0,0,0,.36,1,1.29,1.29,0,0,0,1,.39,1.3,1.3,0,0,0,1-.39,1.35,1.35,0,0,0,.35-1V49.55c0-.65-.38-1.08-1.15-1.31l-2.63-.75A2.73,2.73,0,0,1,180.91,44.72Z"/><path class="cls-2" d="M74.94,53.43H71.59V46.52l-3.51,6.91-3.52-6.91v6.91H61.91V41.55H63a3.13,3.13,0,0,1,2.9,1.58l2.58,4.71,2.45-4.71a3.11,3.11,0,0,1,2.89-1.58h1.11Z"/><path class="cls-2" d="M86.83,53.42H83.5v-4.3H80.78v4.3H77.45V41.56h6.29a3.4,3.4,0,0,1,2.3.69,2.27,2.27,0,0,1,.79,1.81ZM83.5,47.63V44.41a1.55,1.55,0,0,0-.36-1,1.25,1.25,0,0,0-1-.43H80.78v4.67Z"/><path class="cls-2" d="M92.64,47.39v6H89.3V41.55h3.34v3.92h.08l3.37-3.91h3.65l-4.08,4.35V46a3.47,3.47,0,0,1,2.35.69,2.27,2.27,0,0,1,.79,1.81v4.94H95.47v-4.6a1.54,1.54,0,0,0-.36-1A1.34,1.34,0,0,0,94,47.39Z"/><path class="cls-2" d="M101.11,41.55h3.34V53.43h-3.34Z"/><path class="cls-2" d="M108.33,41.55A3.08,3.08,0,0,1,111,43.13l3.12,4.73V41.55h2.66V53.43h-.7a3.26,3.26,0,0,1-3-1.59l-3.4-5.32v6.91H107V41.55Z"/><path class="cls-2" d="M125.08,48.71a.74.74,0,0,0-.46-.12h-.85v-1.4h2.69a2.27,2.27,0,0,1,1.57.47,1.57,1.57,0,0,1,.54,1.25v2a2.3,2.3,0,0,1-.79,1.81,3.42,3.42,0,0,1-2.3.69h-3.21a3.37,3.37,0,0,1-2.29-.69,2.27,2.27,0,0,1-.79-1.81V44.06a2.27,2.27,0,0,1,.79-1.81,3.37,3.37,0,0,1,2.29-.69h3.21a3.42,3.42,0,0,1,2.3.69,2.3,2.3,0,0,1,.79,1.81v1.38h-3.34V44.32a1.41,1.41,0,0,0-.35-1,1.3,1.3,0,0,0-1-.39,1.29,1.29,0,0,0-1,.39,1.37,1.37,0,0,0-.36,1v6.26a1.52,1.52,0,0,0,.36,1,1.22,1.22,0,0,0,1,.43,1.23,1.23,0,0,0,1-.43,1.57,1.57,0,0,0,.35-1V49.17A.59.59,0,0,0,125.08,48.71Z"/><path class="cls-2" d="M135.37,41.55h3.34V53.43h-3.34Z"/><path class="cls-2" d="M151.08,41.56a1.83,1.83,0,0,1-.57,1.42,2.22,2.22,0,0,1-1.57.52h-1.43v9.93h-3.34V43.5h-3.56a1.82,1.82,0,0,1,.56-1.42,2.3,2.3,0,0,1,1.58-.52Z"/><path class="cls-2" d="M192.72,44.72v-.66a2.27,2.27,0,0,1,.79-1.81,3.37,3.37,0,0,1,2.29-.69H199a3.4,3.4,0,0,1,2.3.69,2.3,2.3,0,0,1,.79,1.81v1.12h-3.33v-1a1.19,1.19,0,0,0-.36-.92,1.4,1.4,0,0,0-1-.35,1.38,1.38,0,0,0-1,.35,1.19,1.19,0,0,0-.36.92v1c0,.53.4.92,1.2,1.16l2.58.77c1.51.39,2.27,1.21,2.27,2.47v1.3a2.3,2.3,0,0,1-.79,1.81,3.4,3.4,0,0,1-2.3.69H195.8a3.37,3.37,0,0,1-2.29-.69,2.27,2.27,0,0,1-.79-1.81V49.46h3.33v1.2a1.35,1.35,0,0,0,.36,1,1.29,1.29,0,0,0,1,.39,1.3,1.3,0,0,0,1-.39,1.35,1.35,0,0,0,.36-1V49.55c0-.65-.39-1.08-1.16-1.31L195,47.49A2.73,2.73,0,0,1,192.72,44.72Z"/><path class="cls-2" d="M204.57,41.55h3.34V53.43h-3.34Z"/><path class="cls-2" d="M210.43,41.56h5a5.45,5.45,0,0,1,3,.73,2.18,2.18,0,0,1,1.1,1.86v.59a2.22,2.22,0,0,1-.38,1.34,2.53,2.53,0,0,1-1.35.8V47a3.06,3.06,0,0,1,1.77.95,2.53,2.53,0,0,1,.57,1.66v1a2.43,2.43,0,0,1-1.1,2.07,5.18,5.18,0,0,1-3,.77h-2.39a3.34,3.34,0,0,1-2.4-.77,2.7,2.7,0,0,1-.79-2Zm3.34,4.88h1a1.23,1.23,0,0,0,1-.43,1.57,1.57,0,0,0,.35-1v-.68a1.41,1.41,0,0,0-.35-1,1.3,1.3,0,0,0-1-.39h-1Zm3,2.94a1.57,1.57,0,0,0-.51-1.27,2.07,2.07,0,0,0-1.34-.43h-1.17V50.5a1.67,1.67,0,0,0,.34,1.14,1.42,1.42,0,0,0,1.12.39,1.57,1.57,0,0,0,1.2-.39,1.62,1.62,0,0,0,.36-1.14Z"/><path class="cls-2" d="M225.1,53.43a3,3,0,0,1-2.13-.65,2.39,2.39,0,0,1-.68-1.85V41.56h3.33v9.2a1,1,0,0,0,.25.75,1.05,1.05,0,0,0,.77.26h3.21v1.66Z"/><path class="cls-2" d="M240,41.56v1.66h-4.64v3.19h4.13v1.48h-4.13v2.87a1,1,0,0,0,.25.75,1.05,1.05,0,0,0,.77.26H240v1.66h-5.16a3,3,0,0,1-2.13-.65,2.39,2.39,0,0,1-.68-1.85V41.56Z"/></g></g></svg>