<?xml version="1.0" encoding="UTF-8"?>
<svg width="24px" height="19px" viewBox="0 0 24 19" version="1.1" xmlns="http://www.w3.org/2000/svg" xmlns:xlink="http://www.w3.org/1999/xlink">
    <!-- Generator: Sketch 52.5 (67469) - http://www.bohemiancoding.com/sketch -->
    <title>medium</title>
    <desc>Created with Sketch.</desc>
    <g id="Page-1" stroke="none" stroke-width="1" fill="none" fill-rule="evenodd">
        <g id="first-page" transform="translate(-804.000000, -970.000000)" fill="#BDBDBD">
            <g id="footer" transform="translate(464.000000, 902.000000)">
                <g id="icons" transform="translate(148.000000, 65.000000)">
                    <path d="M194.848665,6.89925373 C194.848665,6.61567164 194.706231,6.26119403 194.492582,6.11940299 L192.284866,3.42537313 L192.284866,3 L199.264095,3 L204.605341,14.7686567 L209.376855,3 L216,3 L216,3.42537313 L214.077151,5.26865672 C213.934718,5.33955224 213.863501,5.55223881 213.863501,5.76492537 L213.863501,19.2350746 C213.863501,19.4477612 213.934718,19.6604478 214.077151,19.8022388 L216,21.5746269 L216,22 L206.52819,22 L206.52819,21.5746269 L208.451039,19.7313433 C208.664688,19.5186567 208.664688,19.4477612 208.664688,19.1641791 L208.664688,8.31716418 L203.252226,21.9291045 L202.540059,21.9291045 L196.272997,8.31716418 L196.272997,17.4626866 C196.20178,17.8171642 196.344214,18.2425373 196.62908,18.5261194 L199.121662,21.5746269 L199.121662,21.9291045 L192,21.9291045 L192,21.5746269 L194.492582,18.5261194 C194.777448,18.2425373 194.919881,17.8171642 194.848665,17.4626866 L194.848665,6.89925373 Z" id="medium"></path>
                </g>
            </g>
        </g>
    </g>
</svg>