<?xml version="1.0" encoding="UTF-8"?>
<svg width="16px" height="56px" viewBox="0 0 16 56" version="1.1" xmlns="http://www.w3.org/2000/svg" xmlns:xlink="http://www.w3.org/1999/xlink">
    <!-- Generator: Sketch 52.5 (67469) - http://www.bohemiancoding.com/sketch -->
    <title>Shape</title>
    <desc>Created with Sketch.</desc>
    <g id="Page-1" stroke="none" stroke-width="1" fill="none" fill-rule="evenodd">
        <g id="first-page" transform="translate(-712.000000, -730.000000)" fill="#BDBDBD" fill-rule="nonzero">
            <g id="scroll" transform="translate(712.000000, 730.000000)">
                <path d="M9,14.0493752 C8.67109376,14.0167194 8.3374994,14 8,14 C7.6625006,14 7.32890624,14.0167194 7,14.0493752 L7,1 C7,0.44771525 7.44771525,1.01453063e-16 8,0 C8.55228475,-1.01453063e-16 9,0.44771525 9,1 L9,14.0493752 Z M9,41.9506248 L9,55 C9,55.5522847 8.55228475,56 8,56 C7.44771525,56 7,55.5522847 7,55 L7,41.9506248 C7.32890624,41.9832806 7.6625006,42 8,42 C8.3374994,42 8.67109376,41.9832806 9,41.9506248 Z M8,18 C4.6862915,18 2,20.6862915 2,24 L2,32 C2,35.3137085 4.6862915,38 8,38 C11.3137085,38 14,35.3137085 14,32 L14,24 C14,20.6862915 11.3137085,18 8,18 Z M8,16 C12.418278,16 16,19.581722 16,24 L16,32 C16,36.418278 12.418278,40 8,40 C3.581722,40 5.41083001e-16,36.418278 0,32 L0,24 C-5.41083001e-16,19.581722 3.581722,16 8,16 Z M8,22 C9.1045695,22 10,22.8954305 10,24 L10,26 C10,27.1045695 9.1045695,28 8,28 C6.8954305,28 6,27.1045695 6,26 L6,24 C6,22.8954305 6.8954305,22 8,22 Z" id="Shape"></path>
            </g>
        </g>
    </g>
</svg>