<?xml version="1.0" encoding="UTF-8"?>
<svg width="24px" height="21px" viewBox="0 0 24 21" version="1.1" xmlns="http://www.w3.org/2000/svg" xmlns:xlink="http://www.w3.org/1999/xlink">
    <!-- Generator: Sketch 52.5 (67469) - http://www.bohemiancoding.com/sketch -->
    <title>twitter</title>
    <desc>Created with Sketch.</desc>
    <g id="Page-1" stroke="none" stroke-width="1" fill="none" fill-rule="evenodd">
        <g id="first-page" transform="translate(-612.000000, -969.000000)" fill="#BDBDBD">
            <g id="footer" transform="translate(464.000000, 902.000000)">
                <g id="icons" transform="translate(148.000000, 65.000000)">
                    <path d="M24,4.82567337 C23.1729051,5.38491605 22.201817,5.68187191 21.2093023,5.67906047 C22.2704258,5.04188059 23.0649356,4.0295525 23.4418605,2.83443682 C22.5622714,3.59239468 21.4538632,4.01921802 20.3023256,4.04340187 C18.7428065,2.41527417 16.3162964,2.03155589 14.3461364,3.1015147 C12.3759763,4.1714735 11.3349084,6.43837158 11.7906977,8.66591529 C7.8390893,8.45325996 4.16189566,6.54036006 1.6744186,3.40336155 C0.427628015,5.70302305 1.09081672,8.59140296 3.20930233,10.0882271 C2.43747785,10.0993431 1.67352268,9.92899862 0.976744186,9.59041797 C1.01536061,11.9479147 2.62835718,13.9737612 4.88372093,14.4973938 C4.15420191,14.6915884 3.39115382,14.7158945 2.65116279,14.5685093 C3.30554998,16.6488868 5.18280418,18.0768937 7.3255814,18.1242889 C5.11795614,19.4893911 2.58202664,20.2033248 0,20.186641 C4.4098994,23.1212615 10.0650648,23.2749865 14.6221397,20.5841163 C19.1792146,17.8932462 21.8617376,12.8162672 21.5581395,7.45695024 C22.4787762,6.68951572 23.2993819,5.80525527 24,4.82567337" id="twitter"></path>
                </g>
            </g>
        </g>
    </g>
</svg>