<?xml version="1.0" encoding="UTF-8"?>
<svg width="453px" height="230px" viewBox="0 0 453 230" version="1.1" xmlns="http://www.w3.org/2000/svg" xmlns:xlink="http://www.w3.org/1999/xlink">
    <!-- Generator: Sketch 52.5 (67469) - http://www.bohemiancoding.com/sketch -->
    <title>shape</title>
    <desc>Created with Sketch.</desc>
    <defs>
        <linearGradient x1="50%" y1="0%" x2="50%" y2="100%" id="linearGradient-1">
            <stop stop-color="#484848" offset="0%"></stop>
            <stop stop-color="#424242" offset="100%"></stop>
        </linearGradient>
        <path d="M6,0 L120,8.8817842e-16 C123.313708,9.10895318e-15 126,2.6862915 126,6 L126,42.1073826 C126,45.421091 123.313708,48.1073826 120,48.1073826 L6,48.1073826 C2.6862915,48.1073826 -4.82366169e-16,45.421091 -8.8817842e-16,42.1073826 L-8.8817842e-16,6 C-1.29399067e-15,2.6862915 2.6862915,1.4968968e-15 6,8.8817842e-16 Z" id="path-2"></path>
        <filter x="-4.4%" y="-7.3%" width="108.7%" height="122.9%" filterUnits="objectBoundingBox" id="filter-3">
            <feOffset dx="0" dy="2" in="SourceAlpha" result="shadowOffsetOuter1"></feOffset>
            <feGaussianBlur stdDeviation="1.5" in="shadowOffsetOuter1" result="shadowBlurOuter1"></feGaussianBlur>
            <feColorMatrix values="0 0 0 0 0   0 0 0 0 0   0 0 0 0 0  0 0 0 0.5 0" type="matrix" in="shadowBlurOuter1"></feColorMatrix>
        </filter>
        <path d="M6,0 L120,0 C123.313708,8.22077476e-15 126,2.6862915 126,6 L126,42.1073826 C126,45.421091 123.313708,48.1073826 120,48.1073826 L6,48.1073826 C2.6862915,48.1073826 -4.82366169e-16,45.421091 -8.8817842e-16,42.1073826 L-8.8817842e-16,6 C-1.29399067e-15,2.6862915 2.6862915,6.08718376e-16 6,0 Z" id="path-4"></path>
        <filter x="-4.4%" y="-7.3%" width="108.7%" height="122.9%" filterUnits="objectBoundingBox" id="filter-5">
            <feOffset dx="0" dy="2" in="SourceAlpha" result="shadowOffsetOuter1"></feOffset>
            <feGaussianBlur stdDeviation="1.5" in="shadowOffsetOuter1" result="shadowBlurOuter1"></feGaussianBlur>
            <feColorMatrix values="0 0 0 0 0   0 0 0 0 0   0 0 0 0 0  0 0 0 0.5 0" type="matrix" in="shadowBlurOuter1"></feColorMatrix>
        </filter>
        <path d="M6,0 L120,8.8817842e-16 C123.313708,9.10895318e-15 126,2.6862915 126,6 L126,42.1073826 C126,45.421091 123.313708,48.1073826 120,48.1073826 L6,48.1073826 C2.6862915,48.1073826 -4.82366169e-16,45.421091 -8.8817842e-16,42.1073826 L-8.8817842e-16,6 C-1.29399067e-15,2.6862915 2.6862915,1.4968968e-15 6,8.8817842e-16 Z" id="path-6"></path>
        <filter x="-4.4%" y="-7.3%" width="108.7%" height="122.9%" filterUnits="objectBoundingBox" id="filter-7">
            <feOffset dx="0" dy="2" in="SourceAlpha" result="shadowOffsetOuter1"></feOffset>
            <feGaussianBlur stdDeviation="1.5" in="shadowOffsetOuter1" result="shadowBlurOuter1"></feGaussianBlur>
            <feColorMatrix values="0 0 0 0 0   0 0 0 0 0   0 0 0 0 0  0 0 0 0.5 0" type="matrix" in="shadowBlurOuter1"></feColorMatrix>
        </filter>
        <path d="M6,0 L120,0 C123.313708,8.22077476e-15 126,2.6862915 126,6 L126,42.1073826 C126,45.421091 123.313708,48.1073826 120,48.1073826 L6,48.1073826 C2.6862915,48.1073826 4.05812251e-16,45.421091 0,42.1073826 L0,6 C-4.05812251e-16,2.6862915 2.6862915,6.08718376e-16 6,0 Z" id="path-8"></path>
        <filter x="-4.4%" y="-7.3%" width="108.7%" height="122.9%" filterUnits="objectBoundingBox" id="filter-9">
            <feOffset dx="0" dy="2" in="SourceAlpha" result="shadowOffsetOuter1"></feOffset>
            <feGaussianBlur stdDeviation="1.5" in="shadowOffsetOuter1" result="shadowBlurOuter1"></feGaussianBlur>
            <feColorMatrix values="0 0 0 0 0   0 0 0 0 0   0 0 0 0 0  0 0 0 0.5 0" type="matrix" in="shadowBlurOuter1"></feColorMatrix>
        </filter>
        <path d="M6,0 L120,0 C123.313708,8.22077476e-15 126,2.6862915 126,6 L126,42.1073826 C126,45.421091 123.313708,48.1073826 120,48.1073826 L6,48.1073826 C2.6862915,48.1073826 -4.82366169e-16,45.421091 -8.8817842e-16,42.1073826 L-8.8817842e-16,6 C-1.29399067e-15,2.6862915 2.6862915,6.08718376e-16 6,0 Z" id="path-10"></path>
        <filter x="-4.4%" y="-7.3%" width="108.7%" height="122.9%" filterUnits="objectBoundingBox" id="filter-11">
            <feOffset dx="0" dy="2" in="SourceAlpha" result="shadowOffsetOuter1"></feOffset>
            <feGaussianBlur stdDeviation="1.5" in="shadowOffsetOuter1" result="shadowBlurOuter1"></feGaussianBlur>
            <feColorMatrix values="0 0 0 0 0   0 0 0 0 0   0 0 0 0 0  0 0 0 0.5 0" type="matrix" in="shadowBlurOuter1"></feColorMatrix>
        </filter>
    </defs>
    <g id="Page-1" stroke="none" stroke-width="1" fill="none" fill-rule="evenodd">
        <g id="third-page" transform="translate(-781.000000, -442.000000)">
            <g id="content" transform="translate(305.000000, 166.000000)">
                <g id="shape" transform="translate(479.000000, 277.000000)">
                    <g id="statement" transform="translate(0.000000, 13.530201)">
                        <g id="Rectangle">
                            <use fill="black" fill-opacity="1" filter="url(#filter-3)" xlink:href="#path-2"></use>
                            <use fill="url(#linearGradient-1)" fill-rule="evenodd" xlink:href="#path-2"></use>
                        </g>
                        <text id="doA()" font-family="Futura-Medium, Futura" font-size="13.5" font-weight="400" fill="#E0E0E0">
                            <tspan x="44.9516602" y="29.033557">doA()</tspan>
                        </text>
                    </g>
                    <g id="statement-copy" transform="translate(0.000000, 96.966443)">
                        <g id="Rectangle">
                            <use fill="black" fill-opacity="1" filter="url(#filter-5)" xlink:href="#path-4"></use>
                            <use fill="url(#linearGradient-1)" fill-rule="evenodd" xlink:href="#path-4"></use>
                        </g>
                        <text id="doB()" font-family="Futura-Medium, Futura" font-size="13.5" font-weight="400" fill="#E0E0E0">
                            <tspan x="45.9602051" y="29.033557">doB()</tspan>
                        </text>
                    </g>
                    <g id="statement-copy-2" transform="translate(168.000000, 0.000000)">
                        <g id="Rectangle">
                            <use fill="black" fill-opacity="1" filter="url(#filter-7)" xlink:href="#path-6"></use>
                            <use fill="url(#linearGradient-1)" fill-rule="evenodd" xlink:href="#path-6"></use>
                        </g>
                        <text id="doC()" font-family="Futura-Medium, Futura" font-size="13.5" font-weight="400" fill="#E0E0E0">
                            <tspan x="45.2219238" y="29.033557">doC()</tspan>
                        </text>
                    </g>
                    <g id="statement-copy-3" transform="translate(168.000000, 175.892617)">
                        <g id="Rectangle">
                            <use fill="black" fill-opacity="1" filter="url(#filter-9)" xlink:href="#path-8"></use>
                            <use fill="url(#linearGradient-1)" fill-rule="evenodd" xlink:href="#path-8"></use>
                        </g>
                        <text id="doD()" font-family="Futura-Medium, Futura" font-size="13.5" font-weight="400" fill="#E0E0E0">
                            <tspan x="45.0505371" y="29.033557">doD()</tspan>
                        </text>
                    </g>
                    <g id="statement-copy-4" transform="translate(321.000000, 61.637584)">
                        <g id="Rectangle">
                            <use fill="black" fill-opacity="1" filter="url(#filter-11)" xlink:href="#path-10"></use>
                            <use fill="url(#linearGradient-1)" fill-rule="evenodd" xlink:href="#path-10"></use>
                        </g>
                        <text id="doE()" font-family="Futura-Medium, Futura" font-size="13.5" font-weight="400" fill="#E0E0E0">
                            <tspan x="46.1348877" y="29.033557">doE()</tspan>
                        </text>
                    </g>
                    <path id="Line" d="M160.562652,28.6440278 L160.342439,28.7162588 L160.108689,28.0036153 L160.328902,27.9313843 L159.238066,24.6057149 L168.047307,25.7943671 L161.653488,31.9696972 L160.562652,28.6440278 Z M126.491875,39.819409 L126.135554,39.9362842 L125.901803,39.2236408 L126.258125,39.1067655 L129.108699,38.1717634 L129.46502,38.0548881 L129.698771,38.7675316 L129.342449,38.8844069 L126.491875,39.819409 Z M132.193023,37.9494047 L131.836701,38.06628 L131.602951,37.3536365 L131.959272,37.2367613 L134.809846,36.3017592 L135.166168,36.1848839 L135.399918,36.8975273 L135.043597,37.0144026 L132.193023,37.9494047 Z M137.89417,36.0794005 L137.537849,36.1962757 L137.304098,35.4836323 L137.66042,35.366757 L140.510994,34.4317549 L140.867315,34.3148796 L141.101066,35.0275231 L140.744744,35.1443984 L137.89417,36.0794005 Z M143.595318,34.2093962 L143.238996,34.3262715 L143.005246,33.6136281 L143.361568,33.4967528 L146.212141,32.5617507 L146.568463,32.4448754 L146.802214,33.1575189 L146.445892,33.2743941 L143.595318,34.2093962 Z M149.296466,32.339392 L148.940144,32.4562673 L148.706393,31.7436238 L149.062715,31.6267485 L151.913289,30.6917464 L152.269611,30.5748712 L152.503361,31.2875146 L152.14704,31.4043899 L149.296466,32.339392 Z M154.997613,30.4693877 L154.641292,30.586263 L154.407541,29.8736196 L154.763863,29.7567443 L157.614437,28.8217422 L157.970758,28.7048669 L158.204509,29.4175104 L157.848187,29.5343856 L154.997613,30.4693877 Z" fill="#6CFF00" fill-rule="nonzero"></path>
                    <path id="Line-Copy" d="M163.949153,196.442124 L163.362902,195.538182 L163.158853,195.223557 L163.788102,194.815458 L163.992152,195.130083 L164.578403,196.034025 L167.514901,194.129562 L168.616837,202.95007 L161.012655,198.346587 L163.949153,196.442124 Z M124.185375,135.130224 L123.981326,134.815599 L124.610575,134.4075 L124.814625,134.722125 L126.447022,137.239123 L126.651071,137.553748 L126.021822,137.961847 L125.817772,137.647222 L124.185375,135.130224 Z M127.450169,140.164221 L127.24612,139.849596 L127.875369,139.441497 L128.079419,139.756121 L129.711816,142.27312 L129.915865,142.587744 L129.286616,142.995844 L129.082566,142.681219 L127.450169,140.164221 Z M130.714963,145.198217 L130.510913,144.883592 L131.140163,144.475493 L131.344213,144.790118 L132.97661,147.307116 L133.180659,147.621741 L132.55141,148.02984 L132.34736,147.715215 L130.714963,145.198217 Z M133.979757,150.232214 L133.775707,149.917589 L134.404957,149.50949 L134.609007,149.824114 L136.241404,152.341113 L136.445453,152.655737 L135.816204,153.063837 L135.612154,152.749212 L133.979757,150.232214 Z M137.244551,155.26621 L137.040501,154.951585 L137.669751,154.543486 L137.8738,154.858111 L139.506197,157.375109 L139.710247,157.689734 L139.080998,158.097833 L138.876948,157.783208 L137.244551,155.26621 Z M140.509345,160.300207 L140.305295,159.985582 L140.934545,159.577483 L141.138594,159.892107 L142.770991,162.409106 L142.975041,162.72373 L142.345791,163.13183 L142.141742,162.817205 L140.509345,160.300207 Z M143.774139,165.334203 L143.570089,165.019578 L144.199339,164.611479 L144.403388,164.926104 L146.035785,167.443102 L146.239835,167.757727 L145.610585,168.165826 L145.406536,167.851201 L143.774139,165.334203 Z M147.038933,170.3682 L146.834883,170.053575 L147.464133,169.645475 L147.668182,169.9601 L149.300579,172.477099 L149.504629,172.791723 L148.875379,173.199823 L148.67133,172.885198 L147.038933,170.3682 Z M150.303727,175.402196 L150.099677,175.087571 L150.728927,174.679472 L150.932976,174.994097 L152.565373,177.511095 L152.769423,177.82572 L152.140173,178.233819 L151.936124,177.919194 L150.303727,175.402196 Z M153.568521,180.436192 L153.364471,180.121568 L153.99372,179.713468 L154.19777,180.028093 L155.830167,182.545091 L156.034217,182.859716 L155.404967,183.267816 L155.200918,182.953191 L153.568521,180.436192 Z M156.833314,185.470189 L156.629265,185.155564 L157.258514,184.747465 L157.462564,185.06209 L159.094961,187.579088 L159.299011,187.893713 L158.669761,188.301812 L158.465711,187.987187 L156.833314,185.470189 Z M160.098108,190.504185 L159.894059,190.189561 L160.523308,189.781461 L160.727358,190.096086 L162.359755,192.613084 L162.563805,192.927709 L161.934555,193.335808 L161.730505,193.021184 L160.098108,190.504185 Z" fill="#6CFF00" fill-rule="nonzero"></path>
                    <path id="Line-Copy-3" d="M322.940387,96.9065244 L315.535838,101.824682 L314.491007,94.1454356 L322.940387,96.9065244 Z M126.425556,124.022583 L126.05398,124.073139 L125.952867,123.329987 L126.324444,123.27943 L129.297055,122.87498 L129.668632,122.824424 L129.769744,123.567576 L129.398168,123.618133 L126.425556,124.022583 Z M132.37078,123.213682 L131.999203,123.264239 L131.89809,122.521086 L132.269667,122.470529 L135.242279,122.066079 L135.613855,122.015523 L135.714968,122.758676 L135.343391,122.809232 L132.37078,123.213682 Z M138.316003,122.404781 L137.944426,122.455338 L137.843314,121.712185 L138.21489,121.661628 L141.187502,121.257178 L141.559078,121.206622 L141.660191,121.949775 L141.288614,122.000331 L138.316003,122.404781 Z M144.261226,121.59588 L143.88965,121.646437 L143.788537,120.903284 L144.160113,120.852728 L147.132725,120.448277 L147.504301,120.397721 L147.605414,121.140874 L147.233838,121.19143 L144.261226,121.59588 Z M150.206449,120.78698 L149.834873,120.837536 L149.73376,120.094383 L150.105337,120.043827 L153.077948,119.639376 L153.449525,119.58882 L153.550637,120.331973 L153.179061,120.382529 L150.206449,120.78698 Z M156.151672,119.978079 L155.780096,120.028635 L155.678983,119.285482 L156.05056,119.234926 L159.023171,118.830475 L159.394748,118.779919 L159.495861,119.523072 L159.124284,119.573628 L156.151672,119.978079 Z M162.096896,119.169178 L161.725319,119.219734 L161.624207,118.476581 L161.995783,118.426025 L164.968395,118.021574 L165.339971,117.971018 L165.441084,118.714171 L165.069507,118.764727 L162.096896,119.169178 Z M168.042119,118.360277 L167.670543,118.410833 L167.56943,117.66768 L167.941006,117.617124 L170.913618,117.212674 L171.285194,117.162117 L171.386307,117.90527 L171.014731,117.955826 L168.042119,118.360277 Z M173.987342,117.551376 L173.615766,117.601932 L173.514653,116.858779 L173.88623,116.808223 L176.858841,116.403773 L177.230418,116.353216 L177.33153,117.096369 L176.959954,117.146926 L173.987342,117.551376 Z M179.932565,116.742475 L179.560989,116.793031 L179.459876,116.049878 L179.831453,115.999322 L182.804064,115.594872 L183.175641,115.544315 L183.276754,116.287468 L182.905177,116.338025 L179.932565,116.742475 Z M185.877789,115.933574 L185.506212,115.98413 L185.4051,115.240978 L185.776676,115.190421 L188.749288,114.785971 L189.120864,114.735415 L189.221977,115.478567 L188.8504,115.529124 L185.877789,115.933574 Z M191.823012,115.124673 L191.451435,115.17523 L191.350323,114.432077 L191.721899,114.38152 L194.694511,113.97707 L195.066087,113.926514 L195.1672,114.669667 L194.795624,114.720223 L191.823012,115.124673 Z M197.768235,114.315772 L197.396659,114.366329 L197.295546,113.623176 L197.667123,113.572619 L200.639734,113.168169 L201.011311,113.117613 L201.112423,113.860766 L200.740847,113.911322 L197.768235,114.315772 Z M203.713458,113.506871 L203.341882,113.557428 L203.240769,112.814275 L203.612346,112.763719 L206.584957,112.359268 L206.956534,112.308712 L207.057646,113.051865 L206.68607,113.102421 L203.713458,113.506871 Z M209.658682,112.697971 L209.287105,112.748527 L209.185993,112.005374 L209.557569,111.954818 L212.530181,111.550367 L212.901757,111.499811 L213.00287,112.242964 L212.631293,112.29352 L209.658682,112.697971 Z M215.603905,111.88907 L215.232328,111.939626 L215.131216,111.196473 L215.502792,111.145917 L218.475404,110.741466 L218.84698,110.69091 L218.948093,111.434063 L218.576516,111.484619 L215.603905,111.88907 Z M221.549128,111.080169 L221.177552,111.130725 L221.076439,110.387572 L221.448015,110.337016 L224.420627,109.932565 L224.792204,109.882009 L224.893316,110.625162 L224.52174,110.675718 L221.549128,111.080169 Z M227.494351,110.271268 L227.122775,110.321824 L227.021662,109.578671 L227.393239,109.528115 L230.36585,109.123665 L230.737427,109.073108 L230.838539,109.816261 L230.466963,109.866817 L227.494351,110.271268 Z M233.439575,109.462367 L233.067998,109.512923 L232.966886,108.76977 L233.338462,108.719214 L236.311074,108.314764 L236.68265,108.264207 L236.783763,109.00736 L236.412186,109.057917 L233.439575,109.462367 Z M239.384798,108.653466 L239.013221,108.704022 L238.912109,107.96087 L239.283685,107.910313 L242.256297,107.505863 L242.627873,107.455306 L242.728986,108.198459 L242.357409,108.249016 L239.384798,108.653466 Z M245.330021,107.844565 L244.958445,107.895122 L244.857332,107.151969 L245.228908,107.101412 L248.20152,106.696962 L248.573097,106.646406 L248.674209,107.389558 L248.302633,107.440115 L245.330021,107.844565 Z M251.275244,107.035664 L250.903668,107.086221 L250.802555,106.343068 L251.174132,106.292511 L254.146743,105.888061 L254.51832,105.837505 L254.619432,106.580658 L254.247856,106.631214 L251.275244,107.035664 Z M257.220468,106.226763 L256.848891,106.27732 L256.747778,105.534167 L257.119355,105.483611 L260.091967,105.07916 L260.463543,105.028604 L260.564656,105.771757 L260.193079,105.822313 L257.220468,106.226763 Z M263.165691,105.417863 L262.794114,105.468419 L262.693002,104.725266 L263.064578,104.67471 L266.03719,104.270259 L266.408766,104.219703 L266.509879,104.962856 L266.138302,105.013412 L263.165691,105.417863 Z M269.110914,104.608962 L268.739338,104.659518 L268.638225,103.916365 L269.009801,103.865809 L271.982413,103.461358 L272.353989,103.410802 L272.455102,104.153955 L272.083526,104.204511 L269.110914,104.608962 Z M275.056137,103.800061 L274.684561,103.850617 L274.583448,103.107464 L274.955025,103.056908 L277.927636,102.652457 L278.299213,102.601901 L278.400325,103.345054 L278.028749,103.39561 L275.056137,103.800061 Z M281.00136,102.99116 L280.629784,103.041716 L280.528671,102.298563 L280.900248,102.248007 L283.872859,101.843556 L284.244436,101.793 L284.345549,102.536153 L283.973972,102.586709 L281.00136,102.99116 Z M286.946584,102.182259 L286.575007,102.232815 L286.473895,101.489662 L286.845471,101.439106 L289.818083,101.034656 L290.189659,100.984099 L290.290772,101.727252 L289.919195,101.777808 L286.946584,102.182259 Z M292.891807,101.373358 L292.52023,101.423914 L292.419118,100.680761 L292.790694,100.630205 L295.763306,100.225755 L296.134882,100.175198 L296.235995,100.918351 L295.864419,100.968908 L292.891807,101.373358 Z M298.83703,100.564457 L298.465454,100.615013 L298.364341,99.8718605 L298.735918,99.8213042 L301.708529,99.4168538 L302.080106,99.3662975 L302.181218,100.10945 L301.809642,100.160007 L298.83703,100.564457 Z M304.782253,99.7555562 L304.410677,99.8061125 L304.309564,99.0629596 L304.681141,99.0124033 L307.653752,98.6079529 L308.025329,98.5573966 L308.126441,99.3005495 L307.754865,99.3511058 L304.782253,99.7555562 Z M310.727477,98.9466553 L310.3559,98.9972116 L310.254788,98.2540587 L310.626364,98.2035024 L313.598976,97.799052 L313.970552,97.7484957 L314.071665,98.4916486 L313.700088,98.5422049 L310.727477,98.9466553 Z" fill="#6CFF00" fill-rule="nonzero"></path>
                    <path id="Line-Copy-2" d="M313.514842,84.5960799 L313.168135,84.5276465 L312.800233,84.4550296 L312.945467,83.7192259 L313.313369,83.7918428 L313.660076,83.8602762 L314.337834,80.4265255 L321.436032,85.7773397 L312.837084,88.0298306 L313.514842,84.5960799 Z M124.802383,47.3477676 L124.434481,47.2751507 L124.579715,46.539347 L124.947617,46.6119639 L127.890832,47.1928995 L128.258734,47.2655165 L128.1135,48.0013202 L127.745598,47.9287032 L124.802383,47.3477676 Z M130.688813,48.5096388 L130.320911,48.4370219 L130.466145,47.7012182 L130.834047,47.7738351 L133.777262,48.3547707 L134.145163,48.4273877 L133.99993,49.1631914 L133.632028,49.0905745 L130.688813,48.5096388 Z M136.575243,49.6715101 L136.207341,49.5988931 L136.352575,48.8630894 L136.720476,48.9357063 L139.663691,49.516642 L140.031593,49.5892589 L139.886359,50.3250626 L139.518457,50.2524457 L136.575243,49.6715101 Z M142.461672,50.8333813 L142.09377,50.7607643 L142.239004,50.0249606 L142.606906,50.0975776 L145.550121,50.6785132 L145.918023,50.7511301 L145.772789,51.4869338 L145.404887,51.4143169 L142.461672,50.8333813 Z M148.348102,51.9952525 L147.9802,51.9226355 L148.125434,51.1868318 L148.493336,51.2594488 L151.436551,51.8403844 L151.804453,51.9130013 L151.659219,52.6488051 L151.291317,52.5761881 L148.348102,51.9952525 Z M154.234532,53.1571237 L153.86663,53.0845068 L154.011864,52.348703 L154.379766,52.42132 L157.322981,53.0022556 L157.690882,53.0748725 L157.545649,53.8106763 L157.177747,53.7380593 L154.234532,53.1571237 Z M160.120962,54.3189949 L159.75306,54.246378 L159.898294,53.5105743 L160.266195,53.5831912 L163.20941,54.1641268 L163.577312,54.2367438 L163.432078,54.9725475 L163.064176,54.8999305 L160.120962,54.3189949 Z M166.007391,55.4808661 L165.639489,55.4082492 L165.784723,54.6724455 L166.152625,54.7450624 L169.09584,55.325998 L169.463742,55.398615 L169.318508,56.1344187 L168.950606,56.0618017 L166.007391,55.4808661 Z M171.893821,56.6427374 L171.525919,56.5701204 L171.671153,55.8343167 L172.039055,55.9069336 L174.98227,56.4878692 L175.350172,56.5604862 L175.204938,57.2962899 L174.837036,57.223673 L171.893821,56.6427374 Z M177.780251,57.8046086 L177.412349,57.7319916 L177.557583,56.9961879 L177.925485,57.0688049 L180.8687,57.6497405 L181.236601,57.7223574 L181.091368,58.4581611 L180.723466,58.3855442 L177.780251,57.8046086 Z M183.666681,58.9664798 L183.298779,58.8938628 L183.444013,58.1580591 L183.811915,58.2306761 L186.755129,58.8116117 L187.123031,58.8842286 L186.977797,59.6200323 L186.609895,59.5474154 L183.666681,58.9664798 Z M189.55311,60.128351 L189.185209,60.0557341 L189.330442,59.3199303 L189.698344,59.3925473 L192.641559,59.9734829 L193.009461,60.0460998 L192.864227,60.7819036 L192.496325,60.7092866 L189.55311,60.128351 Z M195.43954,61.2902222 L195.071638,61.2176053 L195.216872,60.4818015 L195.584774,60.5544185 L198.527989,61.1353541 L198.895891,61.2079711 L198.750657,61.9437748 L198.382755,61.8711578 L195.43954,61.2902222 Z M201.32597,62.4520934 L200.958068,62.3794765 L201.103302,61.6436728 L201.471204,61.7162897 L204.414419,62.2972253 L204.782321,62.3698423 L204.637087,63.105646 L204.269185,63.033029 L201.32597,62.4520934 Z M207.2124,63.6139647 L206.844498,63.5413477 L206.989732,62.805544 L207.357634,62.8781609 L210.300848,63.4590965 L210.66875,63.5317135 L210.523516,64.2675172 L210.155615,64.1949003 L207.2124,63.6139647 Z M213.098829,64.7758359 L212.730928,64.7032189 L212.876161,63.9674152 L213.244063,64.0400321 L216.187278,64.6209678 L216.55518,64.6935847 L216.409946,65.4293884 L216.042044,65.3567715 L213.098829,64.7758359 Z M218.985259,65.9377071 L218.617357,65.8650901 L218.762591,65.1292864 L219.130493,65.2019034 L222.073708,65.782839 L222.44161,65.8554559 L222.296376,66.5912596 L221.928474,66.5186427 L218.985259,65.9377071 Z M224.871689,67.0995783 L224.503787,67.0269613 L224.649021,66.2911576 L225.016923,66.3637746 L227.960138,66.9447102 L228.32804,67.0173271 L228.182806,67.7531309 L227.814904,67.6805139 L224.871689,67.0995783 Z M230.758119,68.2614495 L230.390217,68.1888326 L230.535451,67.4530288 L230.903353,67.5256458 L233.846567,68.1065814 L234.214469,68.1791984 L234.069235,68.9150021 L233.701334,68.8423851 L230.758119,68.2614495 Z M236.644548,69.4233207 L236.276647,69.3507038 L236.42188,68.6149001 L236.789782,68.687517 L239.732997,69.2684526 L240.100899,69.3410696 L239.955665,70.0768733 L239.587763,70.0042563 L236.644548,69.4233207 Z M242.530978,70.5851919 L242.163076,70.512575 L242.30831,69.7767713 L242.676212,69.8493882 L245.619427,70.4303238 L245.987329,70.5029408 L245.842095,71.2387445 L245.474193,71.1661276 L242.530978,70.5851919 Z M248.417408,71.7470632 L248.049506,71.6744462 L248.19474,70.9386425 L248.562642,71.0112594 L251.505857,71.5921951 L251.873759,71.664812 L251.728525,72.4006157 L251.360623,72.3279988 L248.417408,71.7470632 Z M254.303838,72.9089344 L253.935936,72.8363174 L254.08117,72.1005137 L254.449072,72.1731307 L257.392286,72.7540663 L257.760188,72.8266832 L257.614954,73.5624869 L257.247053,73.48987 L254.303838,72.9089344 Z M260.190267,74.0708056 L259.822366,73.9981886 L259.967599,73.2623849 L260.335501,73.3350019 L263.278716,73.9159375 L263.646618,73.9885544 L263.501384,74.7243582 L263.133482,74.6517412 L260.190267,74.0708056 Z M266.076697,75.2326768 L265.708795,75.1600599 L265.854029,74.4242561 L266.221931,74.4968731 L269.165146,75.0778087 L269.533048,75.1504256 L269.387814,75.8862294 L269.019912,75.8136124 L266.076697,75.2326768 Z M271.963127,76.394548 L271.595225,76.3219311 L271.740459,75.5861274 L272.108361,75.6587443 L275.051576,76.2396799 L275.419478,76.3122969 L275.274244,77.0481006 L274.906342,76.9754836 L271.963127,76.394548 Z M277.849557,77.5564192 L277.481655,77.4838023 L277.626889,76.7479986 L277.994791,76.8206155 L280.938005,77.4015511 L281.305907,77.4741681 L281.160673,78.2099718 L280.792772,78.1373548 L277.849557,77.5564192 Z M283.735986,78.7182905 L283.368085,78.6456735 L283.513319,77.9098698 L283.88122,77.9824867 L286.824435,78.5634223 L287.192337,78.6360393 L287.047103,79.371843 L286.679201,79.2992261 L283.735986,78.7182905 Z M289.622416,79.8801617 L289.254514,79.8075447 L289.399748,79.071741 L289.76765,79.144358 L292.710865,79.7252936 L293.078767,79.7979105 L292.933533,80.5337142 L292.565631,80.4610973 L289.622416,79.8801617 Z M295.508846,81.0420329 L295.140944,80.9694159 L295.286178,80.2336122 L295.65408,80.3062292 L298.597295,80.8871648 L298.965197,80.9597817 L298.819963,81.6955854 L298.452061,81.6229685 L295.508846,81.0420329 Z M301.395276,82.2039041 L301.027374,82.1312872 L301.172608,81.3954834 L301.54051,81.4681004 L304.483725,82.049036 L304.851626,82.1216529 L304.706392,82.8574567 L304.338491,82.7848397 L301.395276,82.2039041 Z M307.281706,83.3657753 L306.913804,83.2931584 L307.059038,82.5573546 L307.426939,82.6299716 L310.370154,83.2109072 L310.738056,83.2835242 L310.592822,84.0193279 L310.22492,83.9467109 L307.281706,83.3657753 Z" fill="#6CFF00" fill-rule="nonzero"></path>
                    <path id="Line-Copy-4" d="M322.709512,79.6939772 L315.520863,74.4653106 L322.355732,70.8119468 L322.709512,79.6939772 Z M294.044281,26.8613394 L293.867505,26.53062 L294.528944,26.1770686 L294.705719,26.5077881 L296.119925,29.1535438 L296.2967,29.4842633 L295.635262,29.8378146 L295.458486,29.5070951 L294.044281,26.8613394 Z M296.872691,32.1528508 L296.695916,31.8221314 L297.357355,31.46858 L297.53413,31.7992995 L298.948336,34.4450552 L299.125111,34.7757746 L298.463672,35.129326 L298.286897,34.7986065 L296.872691,32.1528508 Z M299.701102,37.4443622 L299.524326,37.1136428 L300.185765,36.7600914 L300.362541,37.0908109 L301.776746,39.7365666 L301.953522,40.067286 L301.292083,40.4208374 L301.115307,40.0901179 L299.701102,37.4443622 Z M302.529513,42.7358736 L302.352737,42.4051542 L303.014176,42.0516028 L303.190952,42.3823223 L304.605157,45.028078 L304.781933,45.3587974 L304.120494,45.7123488 L303.943718,45.3816293 L302.529513,42.7358736 Z M305.357923,48.027385 L305.181148,47.6966656 L305.842587,47.3431142 L306.019362,47.6738337 L307.433568,50.3195894 L307.610343,50.6503088 L306.948904,51.0038602 L306.772129,50.6731407 L305.357923,48.027385 Z M308.186334,53.3188964 L308.009558,52.988177 L308.670997,52.6346256 L308.847773,52.9653451 L310.261978,55.6111008 L310.438754,55.9418202 L309.777315,56.2953716 L309.600539,55.9646521 L308.186334,53.3188964 Z M311.014745,58.6104078 L310.837969,58.2796883 L311.499408,57.926137 L311.676184,58.2568565 L313.090389,60.9026122 L313.267165,61.2333316 L312.605726,61.586883 L312.42895,61.2561635 L311.014745,58.6104078 Z M313.843155,63.9019192 L313.66638,63.5711997 L314.327819,63.2176484 L314.504594,63.5483679 L315.9188,66.1941236 L316.095575,66.524843 L315.434137,66.8783944 L315.257361,66.5476749 L313.843155,63.9019192 Z M316.671566,69.1934306 L316.494791,68.8627111 L317.156229,68.5091598 L317.333005,68.8398793 L318.74721,71.485635 L318.923986,71.8163544 L318.262547,72.1699058 L318.085772,71.8391863 L316.671566,69.1934306 Z" fill="#6CFF00" fill-rule="nonzero"></path>
                </g>
            </g>
        </g>
    </g>
</svg>