<?xml version="1.0" encoding="UTF-8"?>
<svg width="24px" height="17px" viewBox="0 0 24 17" version="1.1" xmlns="http://www.w3.org/2000/svg" xmlns:xlink="http://www.w3.org/1999/xlink">
    <!-- Generator: Sketch 52.5 (67469) - http://www.bohemiancoding.com/sketch -->
    <title>youtube</title>
    <desc>Created with Sketch.</desc>
    <g id="Page-1" stroke="none" stroke-width="1" fill="none" fill-rule="evenodd">
        <g id="first-page" transform="translate(-660.000000, -971.000000)" fill="#BDBDBD">
            <g id="footer" transform="translate(464.000000, 902.000000)">
                <g id="icons" transform="translate(148.000000, 65.000000)">
                    <path d="M69.3781513,4.53968254 C70.3865546,4.80952381 71.2605042,5.61904762 71.5294118,6.63095238 C72.1344538,9.12698413 72.1344538,15.9404762 71.5294118,18.3690476 C71.2605042,19.3809524 70.3865546,20.1904762 69.3781513,20.4603175 C66.8907563,21.1349206 53.1092437,21.1349206 50.6890756,20.4603175 C49.6806723,20.1904762 48.8067227,19.3809524 48.5378151,18.3690476 C47.8655462,15.7380952 47.9327731,9.19444444 48.5378151,6.63095238 C48.8067227,5.61904762 49.6806723,4.80952381 50.6890756,4.53968254 C53.3109244,3.86507937 67.092437,3.93253968 69.3781513,4.53968254 Z M57.6134454,8.92460317 L57.6134454,16.0753968 L63.8655462,12.5 L57.6134454,8.92460317 Z" id="youtube"></path>
                </g>
            </g>
        </g>
    </g>
</svg>